<svg width="1280" height="720" viewBox="0 0 1280 720" fill="none" xmlns="http://www.w3.org/2000/svg">
<g clip-path="url(#clip0)">
<rect width="1280" height="720" fill="white"/>
<path d="M-4 0H1286V720H-4V0Z" fill="#FFDA84"/>
<rect x="-167" y="354" width="1590" height="116" fill="#5A6D24"/>
<rect x="-314" y="427" width="1947.23" height="1039.74" fill="#BBDC77"/>
<rect x="708.845" y="355.702" width="21.6733" height="6.43986" fill="#485E0C"/>
<rect x="19.1235" y="342.823" width="19.1235" height="19.3196" fill="#5A6D24"/>
<rect y="342.823" width="19.1235" height="19.3196" fill="#485E0C"/>
<rect x="19.1235" y="323.503" width="19.1235" height="19.3196" fill="#485E0C"/>
<rect x="7.59052" y="326.69" width="19.1235" height="19.3196" fill="#485E0C"/>
<rect x="26.6101" y="309.959" width="19.1235" height="19.3196" fill="#485E0C"/>
<rect x="38.247" y="304.183" width="19.1235" height="19.3196" fill="#485E0C"/>
<rect x="57.3705" y="313.843" width="19.1235" height="19.3196" fill="#485E0C"/>
<rect x="76.494" y="309.979" width="19.1235" height="19.3196" fill="#485E0C"/>
<rect x="95.6176" y="333.163" width="19.1235" height="19.3196" fill="#485E0C"/>
<rect x="114.741" y="323.503" width="19.1235" height="19.3196" fill="#485E0C"/>
<rect x="131.952" y="336.383" width="19.1235" height="19.3196" fill="#485E0C"/>
<rect x="133.754" y="319.611" width="19.1235" height="19.3196" fill="#485E0C"/>
<rect x="145.165" y="307.384" width="19.1235" height="19.3196" fill="#485E0C"/>
<rect x="160.637" y="300.32" width="19.1235" height="19.3196" fill="#485E0C"/>
<rect x="171.793" y="309.959" width="19.1235" height="19.3196" fill="#485E0C"/>
<rect x="179.401" y="320.898" width="19.1235" height="19.3196" fill="#485E0C"/>
<rect x="188.276" y="333.125" width="19.1235" height="19.3196" fill="#485E0C"/>
<rect x="198.884" y="336.383" width="19.1235" height="19.3196" fill="#485E0C"/>
<rect x="206.534" y="342.823" width="19.1235" height="19.3196" fill="#485E0C"/>
<rect x="218.049" y="326.723" width="19.1235" height="19.3196" fill="#485E0C"/>
<rect x="229.524" y="313.843" width="19.1235" height="19.3196" fill="#485E0C"/>
<rect x="240.998" y="304.184" width="19.1235" height="19.3196" fill="#485E0C"/>
<rect x="250.56" y="294.524" width="19.1235" height="19.3196" fill="#485E0C"/>
<rect x="260.121" y="281" width="19.1235" height="19.3196" fill="#485E0C"/>
<rect x="277.291" y="291.948" width="19.1235" height="19.3196" fill="#485E0C"/>
<rect x="286.853" y="304.183" width="19.1235" height="19.3196" fill="#485E0C"/>
<rect x="294.502" y="317.063" width="19.1235" height="19.3196" fill="#485E0C"/>
<rect x="305.976" y="323.503" width="19.1235" height="19.3196" fill="#485E0C"/>
<rect x="325.1" y="342.823" width="19.1235" height="19.3196" fill="#485E0C"/>
<rect x="344.223" y="342.823" width="19.1235" height="19.3196" fill="#485E0C"/>
<rect x="363.347" y="342.823" width="19.1235" height="19.3196" fill="#485E0C"/>
<rect x="370.996" y="336.383" width="19.1235" height="19.3196" fill="#485E0C"/>
<rect x="375.458" y="340.891" width="19.1235" height="19.3196" fill="#485E0C"/>
<rect x="394.582" y="342.823" width="19.1235" height="19.3196" fill="#485E0C"/>
<rect x="405.418" y="342.823" width="19.1235" height="19.3196" fill="#485E0C"/>
<rect x="418.167" y="336.383" width="21.6733" height="19.3196" fill="#485E0C"/>
<rect x="439.841" y="323.503" width="21.6733" height="19.3196" fill="#485E0C"/>
<rect x="456.414" y="316.419" width="21.6733" height="19.3196" fill="#485E0C"/>
<rect x="462.789" y="321.571" width="21.6733" height="19.3196" fill="#485E0C"/>
<rect x="467.888" y="331.231" width="21.6733" height="19.3196" fill="#485E0C"/>
<rect x="489.562" y="342.823" width="21.6733" height="19.3196" fill="#485E0C"/>
<rect x="499.124" y="342.823" width="21.6733" height="19.3196" fill="#485E0C"/>
<rect x="517.61" y="323.503" width="21.6733" height="19.3196" fill="#485E0C"/>
<rect x="536.733" y="306.759" width="21.6733" height="19.3196" fill="#485E0C"/>
<rect x="557.769" y="313.843" width="21.6733" height="19.3196" fill="#485E0C"/>
<rect x="574.98" y="316.419" width="21.6733" height="19.3196" fill="#485E0C"/>
<rect x="594.104" y="334.451" width="21.6733" height="19.3196" fill="#485E0C"/>
<rect x="614.502" y="339.603" width="21.6733" height="19.3196" fill="#485E0C"/>
<rect x="632.351" y="346.043" width="21.6733" height="19.3196" fill="#485E0C"/>
<rect x="647.649" y="323.503" width="21.6733" height="19.3196" fill="#485E0C"/>
<rect x="659.124" y="313.843" width="21.6733" height="19.3196" fill="#485E0C"/>
<rect x="670.598" y="320.927" width="21.6733" height="19.3196" fill="#485E0C"/>
<rect x="676.972" y="330.587" width="21.6733" height="19.3196" fill="#485E0C"/>
<rect x="682.709" y="346.043" width="21.6733" height="19.3196" fill="#485E0C"/>
<rect x="693.546" y="352.482" width="21.6733" height="9.65978" fill="#485E0C"/>
<rect x="722.231" y="342.823" width="21.6733" height="19.3196" fill="#485E0C"/>
<rect x="734.343" y="329.299" width="20.3984" height="19.3196" fill="#485E0C"/>
<rect x="744.542" y="317.063" width="20.3984" height="19.3196" fill="#485E0C"/>
<rect x="754.741" y="306.759" width="20.3984" height="19.3196" fill="#485E0C"/>
<rect x="765.578" y="294.524" width="20.3984" height="19.3196" fill="#485E0C"/>
<rect x="773.227" y="294.524" width="20.3984" height="19.3196" fill="#485E0C"/>
<rect x="781.514" y="306.759" width="20.3984" height="19.3196" fill="#485E0C"/>
<rect x="790.438" y="318.995" width="20.3984" height="19.3196" fill="#485E0C"/>
<rect x="798.088" y="329.299" width="20.3984" height="19.3196" fill="#485E0C"/>
<rect x="809.562" y="338.959" width="20.3984" height="19.3196" fill="#485E0C"/>
<rect x="861.833" y="346.043" width="20.3984" height="19.3196" fill="#485E0C"/>
<rect x="868.845" y="338.315" width="20.3984" height="19.3196" fill="#485E0C"/>
<rect x="875.857" y="335.739" width="20.3984" height="19.3196" fill="#485E0C"/>
<rect x="917.928" y="338.315" width="20.3984" height="19.3196" fill="#485E0C"/>
<rect x="936.414" y="324.791" width="20.3984" height="19.3196" fill="#485E0C"/>
<rect x="956.175" y="314.487" width="20.3984" height="22.5395" fill="#485E0C"/>
<rect x="963.187" y="314.487" width="20.3984" height="19.3196" fill="#485E0C"/>
<rect x="974.024" y="328.655" width="20.3984" height="19.3196" fill="#485E0C"/>
<rect x="975.299" y="342.823" width="20.3984" height="19.3196" fill="#485E0C"/>
<rect x="995.697" y="342.823" width="20.3984" height="19.3196" fill="#485E0C"/>
<rect x="1011.63" y="342.823" width="20.3984" height="19.3196" fill="#485E0C"/>
<rect x="1019.92" y="328.011" width="20.3984" height="19.3196" fill="#485E0C"/>
<rect x="1031.39" y="318.351" width="20.3984" height="19.3196" fill="#485E0C"/>
<rect x="1044.78" y="308.691" width="20.3984" height="19.3196" fill="#485E0C"/>
<rect x="1054.98" y="299.676" width="20.3984" height="19.3196" fill="#485E0C"/>
<rect x="1061.35" y="297.1" width="20.3984" height="19.3196" fill="#485E0C"/>
<rect x="1070.92" y="309.335" width="20.3984" height="19.3196" fill="#485E0C"/>
<rect x="1079.2" y="320.927" width="20.3984" height="19.3196" fill="#485E0C"/>
<rect x="1089.4" y="333.163" width="20.3984" height="19.3196" fill="#485E0C"/>
<rect x="1099.6" y="342.823" width="20.3984" height="19.3196" fill="#485E0C"/>
<rect x="1119.36" y="342.823" width="20.3984" height="19.3196" fill="#485E0C"/>
<rect x="1152.51" y="346.687" width="20.3984" height="19.3196" fill="#485E0C"/>
<rect x="1158.25" y="340.891" width="20.3984" height="19.3196" fill="#485E0C"/>
<rect x="1162.71" y="340.891" width="20.3984" height="19.3196" fill="#485E0C"/>
<rect x="1167.81" y="350.55" width="58.008" height="13.5237" fill="#485E0C"/>
<rect x="1134.02" y="354.414" width="20.3984" height="7.72783" fill="#485E0C"/>
<rect x="814.661" y="352.482" width="114.741" height="9.65978" fill="#485E0C"/>
<rect x="638.725" y="336.383" width="21.6733" height="19.3196" fill="#485E0C"/>
<rect x="520.159" y="342.823" width="19.1235" height="19.3196" fill="#5A6D24"/>
<rect x="38.247" y="323.503" width="19.1235" height="19.3196" fill="#5A6D24"/>
<rect x="539.283" y="323.503" width="19.1235" height="19.3196" fill="#5A6D24"/>
<rect x="38.247" y="342.823" width="19.1235" height="19.3196" fill="#5A6D24"/>
<rect x="539.283" y="342.823" width="19.1235" height="19.3196" fill="#5A6D24"/>
<rect x="57.3705" y="342.823" width="19.1235" height="19.3196" fill="#5A6D24"/>
<rect x="558.406" y="342.823" width="19.1235" height="19.3196" fill="#5A6D24"/>
<rect x="57.3705" y="333.163" width="19.1235" height="19.3196" fill="#5A6D24"/>
<rect x="558.406" y="333.163" width="19.1235" height="19.3196" fill="#5A6D24"/>
<rect x="76.494" y="329.299" width="19.1235" height="19.3196" fill="#5A6D24"/>
<rect x="577.53" y="329.299" width="19.1235" height="19.3196" fill="#5A6D24"/>
<rect x="76.494" y="346.043" width="19.1235" height="19.3196" fill="#5A6D24"/>
<rect x="577.53" y="346.043" width="19.1235" height="19.3196" fill="#5A6D24"/>
<rect x="95.6176" y="352.482" width="19.1235" height="19.3196" fill="#5A6D24"/>
<rect x="596.653" y="352.482" width="19.1235" height="19.3196" fill="#5A6D24"/>
<rect x="114.741" y="342.823" width="19.1235" height="19.3196" fill="#5A6D24"/>
<rect x="615.777" y="342.823" width="19.1235" height="19.3196" fill="#5A6D24"/>
<rect x="128.127" y="355.702" width="19.1235" height="19.3196" fill="#5A6D24"/>
<rect x="629.163" y="355.702" width="19.1235" height="19.3196" fill="#5A6D24"/>
<rect x="141.514" y="338.959" width="19.1235" height="19.3196" fill="#5A6D24"/>
<rect x="642.55" y="338.959" width="19.1235" height="19.3196" fill="#5A6D24"/>
<rect x="151.076" y="326.723" width="19.1235" height="19.3196" fill="#5A6D24"/>
<rect x="652.112" y="326.723" width="19.1235" height="19.3196" fill="#5A6D24"/>
<rect x="160.637" y="317.063" width="19.1235" height="19.3196" fill="#5A6D24"/>
<rect x="661.673" y="317.063" width="19.1235" height="19.3196" fill="#5A6D24"/>
<rect x="168.287" y="326.723" width="19.1235" height="19.3196" fill="#5A6D24"/>
<rect x="669.323" y="326.723" width="19.1235" height="19.3196" fill="#5A6D24"/>
<rect x="175.936" y="336.383" width="19.1235" height="19.3196" fill="#5A6D24"/>
<rect x="676.972" y="336.383" width="19.1235" height="19.3196" fill="#5A6D24"/>
<rect x="160.637" y="339.603" width="19.1235" height="19.3196" fill="#5A6D24"/>
<rect x="661.673" y="339.603" width="19.1235" height="19.3196" fill="#5A6D24"/>
<rect x="145.339" y="352.482" width="19.1235" height="19.3196" fill="#5A6D24"/>
<rect x="646.375" y="352.482" width="19.1235" height="19.3196" fill="#5A6D24"/>
<rect x="160.637" y="349.262" width="19.1235" height="19.3196" fill="#5A6D24"/>
<rect x="661.673" y="349.262" width="19.1235" height="19.3196" fill="#5A6D24"/>
<rect x="179.761" y="348.618" width="19.1235" height="19.3196" fill="#5A6D24"/>
<rect x="680.797" y="348.618" width="19.1235" height="19.3196" fill="#5A6D24"/>
<rect x="189.323" y="355.702" width="19.1235" height="19.3196" fill="#5A6D24"/>
<rect x="690.359" y="355.702" width="19.1235" height="19.3196" fill="#5A6D24"/>
<rect x="225.657" y="346.043" width="19.1235" height="19.3196" fill="#5A6D24"/>
<rect x="726.693" y="346.043" width="19.1235" height="19.3196" fill="#5A6D24"/>
<rect x="1016.1" y="349.906" width="19.1235" height="19.3196" fill="#5A6D24"/>
<rect x="237.131" y="333.163" width="19.1235" height="19.3196" fill="#5A6D24"/>
<rect x="738.167" y="333.163" width="19.1235" height="19.3196" fill="#5A6D24"/>
<rect x="1027.57" y="337.027" width="19.1235" height="19.3196" fill="#5A6D24"/>
<rect x="248.606" y="323.503" width="19.1235" height="19.3196" fill="#5A6D24"/>
<rect x="749.641" y="323.503" width="19.1235" height="19.3196" fill="#5A6D24"/>
<rect x="1039.04" y="327.367" width="19.1235" height="19.3196" fill="#5A6D24"/>
<rect x="258.167" y="311.267" width="19.1235" height="19.3196" fill="#5A6D24"/>
<rect x="759.203" y="311.267" width="19.1235" height="19.3196" fill="#5A6D24"/>
<rect x="1048.61" y="315.131" width="19.1235" height="19.3196" fill="#5A6D24"/>
<rect x="267.729" y="300.32" width="19.1235" height="19.3196" fill="#5A6D24"/>
<rect x="768.765" y="300.32" width="19.1235" height="19.3196" fill="#5A6D24"/>
<rect x="1058.17" y="304.183" width="19.1235" height="19.3196" fill="#5A6D24"/>
<rect x="277.291" y="311.267" width="19.1235" height="19.3196" fill="#5A6D24"/>
<rect x="778.327" y="311.267" width="19.1235" height="19.3196" fill="#5A6D24"/>
<rect x="1067.73" y="315.131" width="19.1235" height="19.3196" fill="#5A6D24"/>
<rect x="267.729" y="323.503" width="19.1235" height="19.3196" fill="#5A6D24"/>
<rect x="768.765" y="323.503" width="19.1235" height="19.3196" fill="#5A6D24"/>
<rect x="1058.17" y="327.367" width="19.1235" height="19.3196" fill="#5A6D24"/>
<rect x="286.853" y="323.503" width="19.1235" height="19.3196" fill="#5A6D24"/>
<rect x="787.888" y="323.503" width="19.1235" height="19.3196" fill="#5A6D24"/>
<rect x="1077.29" y="327.367" width="19.1235" height="19.3196" fill="#5A6D24"/>
<rect x="256.255" y="333.163" width="19.1235" height="19.3196" fill="#5A6D24"/>
<rect x="757.291" y="333.163" width="19.1235" height="19.3196" fill="#5A6D24"/>
<rect x="1046.69" y="337.027" width="19.1235" height="19.3196" fill="#5A6D24"/>
<rect x="275.379" y="333.163" width="19.1235" height="19.3196" fill="#5A6D24"/>
<rect x="776.414" y="333.163" width="19.1235" height="19.3196" fill="#5A6D24"/>
<rect x="1065.82" y="337.027" width="19.1235" height="19.3196" fill="#5A6D24"/>
<rect x="294.502" y="333.163" width="19.1235" height="19.3196" fill="#5A6D24"/>
<rect x="795.538" y="333.163" width="19.1235" height="19.3196" fill="#5A6D24"/>
<rect x="1084.94" y="337.027" width="19.1235" height="19.3196" fill="#5A6D24"/>
<rect x="305.976" y="342.823" width="19.1235" height="19.3196" fill="#5A6D24"/>
<rect x="807.012" y="342.823" width="19.1235" height="19.3196" fill="#5A6D24"/>
<rect x="1096.41" y="346.687" width="19.1235" height="19.3196" fill="#5A6D24"/>
<rect x="358.247" y="355.058" width="19.1235" height="19.3196" fill="#5A6D24"/>
<rect x="859.283" y="355.058" width="19.1235" height="19.3196" fill="#5A6D24"/>
<rect x="1148.69" y="358.922" width="19.1235" height="19.3196" fill="#5A6D24"/>
<rect x="370.996" y="344.111" width="19.1235" height="19.3196" fill="#5A6D24"/>
<rect x="872.032" y="344.111" width="19.1235" height="19.3196" fill="#5A6D24"/>
<rect x="1161.43" y="347.974" width="19.1235" height="19.3196" fill="#5A6D24"/>
<rect x="375.458" y="352.482" width="19.1235" height="19.3196" fill="#5A6D24"/>
<rect x="876.494" y="352.482" width="19.1235" height="19.3196" fill="#5A6D24"/>
<rect x="1165.9" y="356.346" width="19.1235" height="19.3196" fill="#5A6D24"/>
<rect x="420.717" y="342.823" width="19.1235" height="19.3196" fill="#5A6D24"/>
<rect x="921.753" y="342.823" width="19.1235" height="19.3196" fill="#5A6D24"/>
<rect x="1211.16" y="346.687" width="19.1235" height="19.3196" fill="#5A6D24"/>
<rect x="439.841" y="335.739" width="19.1235" height="19.3196" fill="#5A6D24"/>
<rect x="940.876" y="335.739" width="19.1235" height="19.3196" fill="#5A6D24"/>
<rect x="1230.28" y="339.603" width="19.1235" height="19.3196" fill="#5A6D24"/>
<rect x="458.964" y="323.503" width="19.1235" height="19.3196" fill="#5A6D24"/>
<rect x="960" y="323.503" width="19.1235" height="19.3196" fill="#5A6D24"/>
<rect x="1249.4" y="327.367" width="19.1235" height="19.3196" fill="#5A6D24"/>
<rect x="458.964" y="340.891" width="19.1235" height="19.3196" fill="#5A6D24"/>
<rect x="960" y="340.891" width="19.1235" height="19.3196" fill="#5A6D24"/>
<rect x="1249.4" y="344.755" width="19.1235" height="19.3196" fill="#5A6D24"/>
<rect x="439.841" y="344.111" width="19.1235" height="19.3196" fill="#5A6D24"/>
<rect x="940.876" y="344.111" width="19.1235" height="19.3196" fill="#5A6D24"/>
<rect x="1230.28" y="347.974" width="19.1235" height="19.3196" fill="#5A6D24"/>
<rect x="458.964" y="342.823" width="19.1235" height="19.3196" fill="#5A6D24"/>
<rect x="960" y="342.823" width="19.1235" height="19.3196" fill="#5A6D24"/>
<rect x="1249.4" y="346.687" width="19.1235" height="19.3196" fill="#5A6D24"/>
<rect x="470.438" y="344.111" width="19.1235" height="19.3196" fill="#5A6D24"/>
<rect x="971.474" y="344.111" width="19.1235" height="19.3196" fill="#5A6D24"/>
<rect x="1260.88" y="347.974" width="19.1235" height="19.3196" fill="#5A6D24"/>
<rect x="465.339" y="333.163" width="19.1235" height="19.3196" fill="#5A6D24"/>
<rect x="966.375" y="333.163" width="19.1235" height="19.3196" fill="#5A6D24"/>
<rect x="1255.78" y="337.027" width="19.1235" height="19.3196" fill="#5A6D24"/>
<rect x="363.984" y="350.55" width="14.0239" height="19.3196" fill="#5A6D24"/>
<rect x="865.02" y="350.55" width="14.0239" height="19.3196" fill="#5A6D24"/>
<rect x="1154.42" y="354.414" width="14.0239" height="19.3196" fill="#5A6D24"/>
<rect x="286.853" y="342.823" width="19.1235" height="19.3196" fill="#5A6D24"/>
<rect x="787.888" y="342.823" width="19.1235" height="19.3196" fill="#5A6D24"/>
<rect x="1077.29" y="346.687" width="19.1235" height="19.3196" fill="#5A6D24"/>
<rect x="267.729" y="342.823" width="19.1235" height="19.3196" fill="#5A6D24"/>
<rect x="768.765" y="342.823" width="19.1235" height="19.3196" fill="#5A6D24"/>
<rect x="1058.17" y="346.687" width="19.1235" height="19.3196" fill="#5A6D24"/>
<rect x="248.606" y="342.823" width="19.1235" height="19.3196" fill="#5A6D24"/>
<rect x="749.641" y="342.823" width="19.1235" height="19.3196" fill="#5A6D24"/>
<rect x="1039.04" y="346.687" width="19.1235" height="19.3196" fill="#5A6D24"/>
<rect x="241.594" y="342.823" width="19.1235" height="19.3196" fill="#5A6D24"/>
<rect x="742.63" y="342.823" width="19.1235" height="19.3196" fill="#5A6D24"/>
<rect x="1032.03" y="346.687" width="19.1235" height="19.3196" fill="#5A6D24"/>
<rect width="21.746" height="22.0732" transform="matrix(0.999994 0.00339995 -0.00326689 0.999995 166.072 672.978)" fill="#98BD4C"/>
<rect width="21.746" height="22.0732" transform="matrix(0.999994 0.0033829 -0.00328336 0.999995 173.321 662.187)" fill="#98BD4C"/>
<rect width="21.746" height="22.0732" transform="matrix(0.999994 0.0033829 -0.00328336 0.999995 187.335 646)" fill="#98BD4C"/>
<rect width="21.746" height="22.0732" transform="matrix(0.999994 0.0033829 -0.00328336 0.999995 200.866 646)" fill="#98BD4C"/>
<rect width="21.746" height="22.0732" transform="matrix(0.999994 0.0033829 -0.00328336 0.999995 176.704 672.905)" fill="#A7CB5C"/>
<rect width="21.746" height="22.0732" transform="matrix(0.999994 0.0033829 -0.00328336 0.999995 198.522 650.905)" fill="#A7CB5C"/>
<rect width="21.746" height="22.0732" transform="matrix(0.999994 0.0033829 -0.00328336 0.999995 198.45 672.978)" fill="#A7CB5C"/>
<rect width="21.746" height="22.0732" transform="matrix(0.999994 0.0033829 -0.00328336 0.999995 220.196 673.052)" fill="#A7CB5C"/>
<rect width="21.746" height="22.0732" transform="matrix(0.999994 0.0033829 -0.00328336 0.999995 206.689 665.648)" fill="#A7CB5C"/>
<rect width="21.746" height="22.0732" transform="matrix(0.999994 0.0033829 -0.00328336 0.999995 189.776 665.591)" fill="#A7CB5C"/>
<rect width="18.5643" height="18.8436" transform="matrix(0.999994 0.00339995 -0.00326689 0.999995 328.062 464.031)" fill="#98BD4C"/>
<rect width="18.5643" height="18.8436" transform="matrix(0.999994 0.0033829 -0.00328336 0.999995 334.25 454.819)" fill="#98BD4C"/>
<rect width="18.5643" height="18.8436" transform="matrix(0.999994 0.0033829 -0.00328336 0.999995 346.214 441)" fill="#98BD4C"/>
<rect width="18.5643" height="18.8436" transform="matrix(0.999994 0.0033829 -0.00328336 0.999995 357.765 441)" fill="#98BD4C"/>
<rect width="18.5643" height="18.8436" transform="matrix(0.999994 0.0033829 -0.00328336 0.999995 337.138 463.968)" fill="#A7CB5C"/>
<rect width="18.5643" height="18.8436" transform="matrix(0.999994 0.0033829 -0.00328336 0.999995 355.764 445.187)" fill="#A7CB5C"/>
<rect width="18.5643" height="18.8436" transform="matrix(0.999994 0.0033829 -0.00328336 0.999995 355.702 464.031)" fill="#A7CB5C"/>
<rect width="18.5643" height="18.8436" transform="matrix(0.999994 0.0033829 -0.00328336 0.999995 374.266 464.094)" fill="#A7CB5C"/>
<rect width="18.5643" height="18.8436" transform="matrix(0.999994 0.0033829 -0.00328336 0.999995 362.736 457.774)" fill="#A7CB5C"/>
<rect width="18.5643" height="18.8436" transform="matrix(0.999994 0.0033829 -0.00328336 0.999995 348.297 457.725)" fill="#A7CB5C"/>
<rect width="37.3144" height="37.8758" transform="matrix(0.999994 0.0033829 -0.00328336 0.999995 -25.4376 504.776)" fill="#98BD4C"/>
<rect width="37.3144" height="37.8758" transform="matrix(0.999994 0.0033829 -0.00328336 0.999995 -1.39038 477)" fill="#98BD4C"/>
<rect width="37.3144" height="37.8758" transform="matrix(0.999994 0.0033829 -0.00328336 0.999995 21.8275 477)" fill="#98BD4C"/>
<rect width="37.3144" height="37.8758" transform="matrix(0.999994 0.0033829 -0.00328336 0.999995 -19.6331 523.166)" fill="#A7CB5C"/>
<rect width="37.3144" height="37.8758" transform="matrix(0.999994 0.0033829 -0.00328336 0.999995 17.8055 485.417)" fill="#A7CB5C"/>
<rect width="37.3144" height="37.8758" transform="matrix(0.999994 0.0033829 -0.00328336 0.999995 17.6812 523.293)" fill="#A7CB5C"/>
<rect width="37.3144" height="37.8758" transform="matrix(0.999994 0.0033829 -0.00328336 0.999995 54.9953 523.419)" fill="#A7CB5C"/>
<rect width="37.3144" height="37.8758" transform="matrix(0.999994 0.0033829 -0.00328336 0.999995 31.819 510.715)" fill="#A7CB5C"/>
<rect width="37.3144" height="37.8758" transform="matrix(0.999994 0.0033829 -0.00328336 0.999995 2.79694 510.617)" fill="#A7CB5C"/>
<rect width="20.0618" height="20.3636" transform="matrix(0.999994 0.00339995 -0.00326689 0.999995 636.067 576.889)" fill="#98BD4C"/>
<rect width="20.0618" height="20.3636" transform="matrix(0.999994 0.0033829 -0.00328336 0.999995 642.754 566.933)" fill="#98BD4C"/>
<rect width="20.0618" height="20.3636" transform="matrix(0.999994 0.0033829 -0.00328336 0.999995 655.683 552)" fill="#98BD4C"/>
<rect width="20.0618" height="20.3636" transform="matrix(0.999994 0.0033829 -0.00328336 0.999995 668.166 552)" fill="#98BD4C"/>
<rect width="20.0618" height="20.3636" transform="matrix(0.999994 0.0033829 -0.00328336 0.999995 645.875 576.821)" fill="#A7CB5C"/>
<rect width="20.0618" height="20.3636" transform="matrix(0.999994 0.0033829 -0.00328336 0.999995 666.003 556.525)" fill="#A7CB5C"/>
<rect width="20.0618" height="20.3636" transform="matrix(0.999994 0.0033829 -0.00328336 0.999995 665.936 576.889)" fill="#A7CB5C"/>
<rect width="20.0618" height="20.3636" transform="matrix(0.999994 0.0033829 -0.00328336 0.999995 685.998 576.957)" fill="#A7CB5C"/>
<rect width="20.0618" height="20.3636" transform="matrix(0.999994 0.0033829 -0.00328336 0.999995 673.538 570.127)" fill="#A7CB5C"/>
<rect width="20.0618" height="20.3636" transform="matrix(0.999994 0.0033829 -0.00328336 0.999995 657.934 570.074)" fill="#A7CB5C"/>
<rect width="21.4948" height="21.8181" transform="matrix(0.999994 0.00339995 -0.00326689 0.999995 959.071 471.667)" fill="#98BD4C"/>
<rect width="21.4948" height="21.8181" transform="matrix(0.999994 0.0033829 -0.00328336 0.999995 966.237 461)" fill="#98BD4C"/>
<rect width="21.4948" height="21.8181" transform="matrix(0.999994 0.0033829 -0.00328336 0.999995 980.089 445)" fill="#98BD4C"/>
<rect width="21.4948" height="21.8181" transform="matrix(0.999994 0.0033829 -0.00328336 0.999995 993.463 445)" fill="#98BD4C"/>
<rect width="21.4948" height="21.8181" transform="matrix(0.999994 0.0033829 -0.00328336 0.999995 969.58 471.594)" fill="#A7CB5C"/>
<rect width="21.4948" height="21.8181" transform="matrix(0.999994 0.0033829 -0.00328336 0.999995 991.146 449.848)" fill="#A7CB5C"/>
<rect width="21.4948" height="21.8181" transform="matrix(0.999994 0.0033829 -0.00328336 0.999995 991.075 471.667)" fill="#A7CB5C"/>
<rect width="21.4948" height="21.8181" transform="matrix(0.999994 0.0033829 -0.00328336 0.999995 1012.57 471.739)" fill="#A7CB5C"/>
<rect width="21.4948" height="21.8181" transform="matrix(0.999994 0.0033829 -0.00328336 0.999995 999.219 464.421)" fill="#A7CB5C"/>
<rect width="21.4948" height="21.8181" transform="matrix(0.999994 0.0033829 -0.00328336 0.999995 982.501 464.365)" fill="#A7CB5C"/>
<rect width="13.4586" height="16.2402" transform="matrix(0.999992 0.00396835 -0.00279896 0.999996 944.045 671.24)" fill="#98BD4C"/>
<rect width="13.4586" height="16.2402" transform="matrix(0.999992 0.00402156 -0.00276192 0.999996 948.531 663.301)" fill="#98BD4C"/>
<rect width="13.4586" height="16.2402" transform="matrix(0.999992 0.00402156 -0.00276192 0.999996 957.204 651.391)" fill="#98BD4C"/>
<rect width="13.4586" height="16.2402" transform="matrix(0.999992 0.00402156 -0.00276192 0.999996 965.579 651.391)" fill="#98BD4C"/>
<rect width="13.4586" height="16.2402" transform="matrix(0.999992 0.00402156 -0.00276192 0.999996 950.625 671.186)" fill="#A7CB5C"/>
<rect width="13.4586" height="16.2402" transform="matrix(0.999992 0.00402156 -0.00276192 0.999996 964.128 655)" fill="#A7CB5C"/>
<rect width="13.4586" height="16.2402" transform="matrix(0.999992 0.00402156 -0.00276192 0.999996 964.083 671.24)" fill="#A7CB5C"/>
<rect width="13.4586" height="16.2402" transform="matrix(0.999992 0.00402156 -0.00276192 0.999996 977.542 671.294)" fill="#A7CB5C"/>
<rect width="13.4586" height="16.2402" transform="matrix(0.999992 0.00402156 -0.00276192 0.999996 969.182 665.847)" fill="#A7CB5C"/>
<rect width="13.4586" height="16.2402" transform="matrix(0.999992 0.00402156 -0.00276192 0.999996 958.715 665.805)" fill="#A7CB5C"/>
<rect width="28.7455" height="29.1779" transform="matrix(0.999994 0.00339995 -0.00326689 0.999995 1211.1 545.662)" fill="#98BD4C"/>
<rect width="28.7455" height="29.1779" transform="matrix(0.999994 0.0033829 -0.00328336 0.999995 1220.68 531.397)" fill="#98BD4C"/>
<rect width="28.7455" height="29.1779" transform="matrix(0.999994 0.0033829 -0.00328336 0.999995 1239.2 510)" fill="#98BD4C"/>
<rect width="28.7455" height="29.1779" transform="matrix(0.999994 0.0033829 -0.00328336 0.999995 1257.09 510)" fill="#98BD4C"/>
<rect width="28.7455" height="29.1779" transform="matrix(0.999994 0.0033829 -0.00328336 0.999995 1225.15 545.565)" fill="#A7CB5C"/>
<rect width="28.7455" height="29.1779" transform="matrix(0.999994 0.0033829 -0.00328336 0.999995 1253.99 516.484)" fill="#A7CB5C"/>
<rect width="28.7455" height="29.1779" transform="matrix(0.999994 0.0033829 -0.00328336 0.999995 1253.89 545.662)" fill="#A7CB5C"/>
<rect width="28.7455" height="29.1779" transform="matrix(0.999994 0.0033829 -0.00328336 0.999995 1264.79 535.973)" fill="#A7CB5C"/>
<rect width="28.7455" height="29.1779" transform="matrix(0.999994 0.0033829 -0.00328336 0.999995 1242.43 535.897)" fill="#A7CB5C"/>
<path d="M652 51H672V63H652V51Z" fill="#ACA9A9"/>
<path d="M657 46H677V58H657V46Z" fill="#ACA9A9"/>
<path d="M644 58H666V70H644V58Z" fill="#ACA9A9"/>
<path d="M651 63H672V75H651V63Z" fill="#ACA9A9"/>
<path d="M53 236H96V262H53V236Z" fill="#ACA9A9"/>
<path d="M843 232H904V268H843V232Z" fill="#ACA9A9"/>
<path d="M500.172 234.705L531.697 236.526L530.619 255.184L499.094 253.363L500.172 234.705Z" fill="#ACA9A9"/>
<path d="M315 60H381V99H315V60Z" fill="#ACA9A9"/>
<path d="M39 226H84V251H39V226Z" fill="#ACA9A9"/>
<path d="M823 217H887V253H823V217Z" fill="#ACA9A9"/>
<path d="M490.324 226.39L523.136 228.285L522.058 246.943L489.246 245.048L490.324 226.39Z" fill="#ACA9A9"/>
<path d="M294 44H363V83H294V44Z" fill="#ACA9A9"/>
<path d="M29 213H75V239H29V213Z" fill="#ACA9A9"/>
<path d="M809 199H873V236H809V199Z" fill="#ACA9A9"/>
<path d="M483.767 216.974L516.579 218.869L515.501 237.527L482.689 235.632L483.767 216.974Z" fill="#ACA9A9"/>
<path d="M279 25H348V64H279V25Z" fill="#ACA9A9"/>
<path d="M42 200H87V226H42V200Z" fill="#ACA9A9"/>
<path d="M827 180H891V217H827V180Z" fill="#ACA9A9"/>
<path d="M493.332 207.844L526.143 209.739L525.066 228.397L492.254 226.501L493.332 207.844Z" fill="#ACA9A9"/>
<path d="M298 5H367V44H298V5Z" fill="#ACA9A9"/>
<path d="M55 188H100V214H55V188Z" fill="#ACA9A9"/>
<path d="M844 164H909V200H844V164Z" fill="#ACA9A9"/>
<path d="M502.822 200L536.277 201.932L535.199 220.59L501.744 218.658L502.822 200Z" fill="#ACA9A9"/>
<path d="M317 -13H387V26H317V-13Z" fill="#ACA9A9"/>
<path d="M1172.43 66H1216.24V89.4126H1172.43V66Z" fill="#ACA9A9"/>
<path d="M1080 224H1104V236H1080V224Z" fill="#ACA9A9"/>
<path d="M1159.09 106.531H1189.55V129.944H1159.09V106.531Z" fill="#ACA9A9"/>
<path d="M1073 246H1090V258H1073V246Z" fill="#ACA9A9"/>
<path d="M1146 91.9301H1176.46V115.343H1146V91.9301Z" fill="#ACA9A9"/>
<path d="M1066 238H1083V251H1066V238Z" fill="#ACA9A9"/>
<path d="M1159.85 79.0909H1190.31V102.503H1159.85V79.0909Z" fill="#ACA9A9"/>
<path d="M1074 231H1090V243H1074V231Z" fill="#ACA9A9"/>
<path d="M1175.2 70.2797H1216.24V94.4476H1175.2V70.2797Z" fill="white"/>
<path d="M1082 226H1104V239H1082V226Z" fill="white"/>
<path d="M1185.52 118.615H1210.7V135.734H1185.52V118.615Z" fill="white"/>
<path d="M1087 252H1101V262H1087V252Z" fill="white"/>
<path d="M60 191H104V217H60V191Z" fill="white"/>
<path d="M853 168H914V204H853V168Z" fill="white"/>
<path d="M507.214 202.19L538.739 204.011L537.661 222.669L506.136 220.848L507.214 202.19Z" fill="white"/>
<path d="M326 -9H392V30H326V-9Z" fill="white"/>
<path d="M62 238H105V264H62V238Z" fill="white"/>
<path d="M855 236H917V272H855V236Z" fill="white"/>
<path d="M506.494 237.007L538.019 238.828L536.941 257.485L505.416 255.664L506.494 237.007Z" fill="white"/>
<path d="M328 63H394V103H328V63Z" fill="white"/>
<path d="M660 47H680V59H660V47Z" fill="white"/>
<path d="M660 69H681V81H660V69Z" fill="white"/>
<path d="M1162.87 106.531H1203.9V130.699H1162.87V106.531Z" fill="white"/>
<path d="M1075 246H1097V259H1075V246Z" fill="white"/>
<path d="M47 229H91V255H47V229Z" fill="white"/>
<path d="M834 223H896V259H834V223Z" fill="white"/>
<path d="M495.928 229.941L527.453 231.762L526.376 250.42L494.851 248.599L495.928 229.941Z" fill="white"/>
<path d="M306 50H372V89H306V50Z" fill="white"/>
<path d="M654 65H674V77H654V65Z" fill="white"/>
<path d="M1190.31 106.531H1231.34V130.699H1190.31V106.531Z" fill="white"/>
<path d="M1090 246H1112V259H1090V246Z" fill="white"/>
<path d="M76 229H120V255H76V229Z" fill="white"/>
<path d="M876 223H937V259H876V223Z" fill="white"/>
<path d="M517.16 231.168L548.685 232.988L547.607 251.646L516.082 249.825L517.16 231.168Z" fill="white"/>
<path d="M350 50H416V89H350V50Z" fill="white"/>
<path d="M667 65H687V77H667V65Z" fill="white"/>
<path d="M1190.31 82.3636H1231.34V106.531H1190.31V82.3636Z" fill="white"/>
<path d="M1090 233H1112V246H1090V233Z" fill="white"/>
<path d="M76 204H120V229H76V204Z" fill="white"/>
<path d="M876 187H937V223H876V187Z" fill="white"/>
<path d="M518.237 212.51L549.762 214.331L548.685 232.988L517.16 231.168L518.237 212.51Z" fill="white"/>
<path d="M350 11H416V50H350V11Z" fill="white"/>
<path d="M667 53H687V65H667V53Z" fill="white"/>
<path d="M1162.87 82.3636H1203.9V106.531H1162.87V82.3636Z" fill="white"/>
<path d="M1075 233H1097V246H1075V233Z" fill="white"/>
<path d="M47 204H91V229H47V204Z" fill="white"/>
<path d="M834 187H896V223H834V187Z" fill="white"/>
<path d="M497.006 211.283L528.531 213.104L527.453 231.762L495.928 229.941L497.006 211.283Z" fill="white"/>
<path d="M306 11H372V50H306V11Z" fill="white"/>
<path d="M654 53H674V65H654V53Z" fill="white"/>
<path d="M1149.27 94.4476H1190.31V118.615H1149.27V94.4476Z" fill="white"/>
<path d="M1068 239H1090V252H1068V239Z" fill="white"/>
<path d="M33 217H76V242H33V217Z" fill="white"/>
<path d="M814 204H876V241H814V204Z" fill="white"/>
<path d="M486.192 219.696L517.717 221.517L516.639 240.175L485.114 238.354L486.192 219.696Z" fill="white"/>
<path d="M284 30H350V69H284V30Z" fill="white"/>
<path d="M647 59H667V71H647V59Z" fill="white"/>
<path d="M1206.67 94.4476H1247.71V118.615H1206.67V94.4476Z" fill="white"/>
<path d="M1099 239H1121V252H1099V239Z" fill="white"/>
<path d="M90 217H134V242H90V217Z" fill="white"/>
<path d="M896 204H957V241H896V204Z" fill="white"/>
<path d="M528.011 222.112L559.536 223.933L558.458 242.59L526.933 240.769L528.011 222.112Z" fill="white"/>
<path d="M372 30H438V69H372V30Z" fill="white"/>
<path d="M674 59H694V71H674V59Z" fill="white"/>
</g>
<defs>
<clipPath id="clip0">
<rect width="1280" height="720" fill="white"/>
</clipPath>
</defs>
</svg>
