<svg width="80" height="78" viewBox="0 0 80 78" fill="none" xmlns="http://www.w3.org/2000/svg">
<rect x="28.2353" y="72.2427" width="4.70588" height="4.81618" fill="#ACA9A9"/>
<rect x="23.5294" y="67.4265" width="4.70588" height="4.81618" fill="#ACA9A9"/>
<rect x="18.8235" y="62.6102" width="4.70588" height="4.81618" fill="#ACA9A9"/>
<rect x="42.3529" y="52.978" width="4.70588" height="4.81618" fill="#A7CB5C"/>
<rect x="42.3529" y="48.1617" width="4.70588" height="4.81618" fill="#A7CB5C"/>
<rect x="42.3529" y="38.5294" width="4.70588" height="4.81618" fill="#A7CB5C"/>
<rect x="51.7647" y="33.7133" width="4.70588" height="4.81618" fill="#A7CB5C"/>
<rect x="51.7647" y="28.8971" width="4.70588" height="4.81618" fill="#A7CB5C"/>
<rect x="37.647" y="43.3456" width="4.70588" height="4.81618" fill="#A7CB5C"/>
<rect x="18.8235" y="57.7941" width="4.70588" height="4.81618" fill="#ACA9A9"/>
<rect x="14.1176" y="57.7941" width="4.70588" height="4.81618" fill="#8C6A6A"/>
<rect x="18.8235" y="52.978" width="4.70588" height="4.81618" fill="#8C6A6A"/>
<rect x="23.5294" y="48.1617" width="4.70588" height="4.81618" fill="#8C6A6A"/>
<rect x="28.2353" y="43.3456" width="4.70588" height="4.81618" fill="#8C6A6A"/>
<rect x="28.2353" y="28.8971" width="4.70588" height="4.81618" fill="#8C6A6A"/>
<rect x="18.8235" y="19.2648" width="4.70588" height="4.81618" fill="#8C6A6A"/>
<rect x="32.9412" y="28.8971" width="4.70588" height="4.81618" fill="#8C6A6A"/>
<rect x="23.5294" y="19.2648" width="4.70588" height="4.81618" fill="#8C6A6A"/>
<rect x="37.647" y="28.8971" width="4.70588" height="4.81618" fill="#8C6A6A"/>
<rect x="28.2353" y="19.2648" width="4.70588" height="4.81618" fill="#8C6A6A"/>
<rect x="42.3529" y="28.8971" width="4.70588" height="4.81618" fill="#8C6A6A"/>
<rect x="32.9412" y="19.2648" width="4.70588" height="4.81618" fill="#8C6A6A"/>
<rect x="42.3529" y="24.0809" width="4.70588" height="4.81618" fill="#8C6A6A"/>
<rect x="47.0588" y="28.8971" width="4.70588" height="4.81618" fill="#8C6A6A"/>
<rect x="37.647" y="19.2648" width="4.70588" height="4.81618" fill="#8C6A6A"/>
<rect x="42.3529" y="19.2648" width="4.70588" height="4.81618" fill="#8C6A6A"/>
<rect x="42.3529" y="14.4485" width="4.70588" height="4.81618" fill="#8C6A6A"/>
<rect x="37.647" y="9.63232" width="4.70588" height="4.81618" fill="#8C6A6A"/>
<rect x="32.9412" y="4.81616" width="4.70588" height="4.81618" fill="#8C6A6A"/>
<rect x="28.2353" width="4.70588" height="4.81618" fill="#8C6A6A"/>
<rect x="23.5294" y="62.6102" width="4.70588" height="4.81618" fill="#ACA9A9"/>
<rect x="47.0588" y="52.978" width="4.70588" height="4.81618" fill="#A7CB5C"/>
<rect x="47.0588" y="48.1617" width="4.70588" height="4.81618" fill="#A7CB5C"/>
<rect x="47.0588" y="38.5294" width="4.70588" height="4.81618" fill="#A7CB5C"/>
<rect x="56.4706" y="33.7133" width="4.70588" height="4.81618" fill="#A7CB5C"/>
<rect x="56.4706" y="28.8971" width="4.70588" height="4.81618" fill="#A7CB5C"/>
<rect x="42.3529" y="43.3456" width="4.70588" height="4.81618" fill="#A7CB5C"/>
<rect x="23.5294" y="57.7941" width="4.70588" height="4.81618" fill="#ACA9A9"/>
<rect x="23.5294" y="52.978" width="4.70588" height="4.81618" fill="#ACA9A9"/>
<rect x="28.2353" y="52.978" width="4.70588" height="4.81618" fill="#ACA9A9"/>
<rect x="28.2353" y="48.1617" width="4.70588" height="4.81618" fill="#ACA9A9"/>
<rect x="32.9412" y="48.1617" width="4.70588" height="4.81618" fill="#ACA9A9"/>
<rect x="32.9412" y="33.7133" width="4.70588" height="4.81618" fill="#ACA9A9"/>
<rect x="37.647" y="33.7133" width="4.70588" height="4.81618" fill="#ACA9A9"/>
<rect x="65.8823" y="33.7133" width="4.70588" height="4.81618" fill="#ACA9A9"/>
<rect x="65.8823" y="28.8971" width="4.70588" height="4.81618" fill="#ACA9A9"/>
<rect x="65.8823" y="24.0809" width="4.70588" height="4.81618" fill="#ACA9A9"/>
<rect x="61.1765" y="24.0809" width="4.70588" height="4.81618" fill="#ACA9A9"/>
<rect x="37.647" y="24.0809" width="4.70588" height="4.81618" fill="#ACA9A9"/>
<rect x="28.2353" y="14.4485" width="4.70588" height="4.81618" fill="#ACA9A9"/>
<rect x="18.8235" y="4.81616" width="4.70588" height="4.81618" fill="#ACA9A9"/>
<rect x="23.5294" y="9.63232" width="4.70588" height="4.81618" fill="#8C6A6A"/>
<rect x="14.1176" width="4.70588" height="4.81618" fill="#8C6A6A"/>
<rect x="56.4706" y="24.0809" width="4.70588" height="4.81618" fill="#ACA9A9"/>
<rect x="32.9412" y="24.0809" width="4.70588" height="4.81618" fill="#ACA9A9"/>
<rect x="23.5294" y="14.4485" width="4.70588" height="4.81618" fill="#ACA9A9"/>
<rect x="14.1176" y="4.81616" width="4.70588" height="4.81618" fill="#ACA9A9"/>
<rect x="18.8235" y="9.63232" width="4.70588" height="4.81618" fill="#8C6A6A"/>
<rect x="9.41177" width="4.70588" height="4.81618" fill="#8C6A6A"/>
<rect x="37.647" y="14.4485" width="4.70588" height="4.81618" fill="#ACA9A9"/>
<rect x="28.2353" y="4.81616" width="4.70588" height="4.81618" fill="#ACA9A9"/>
<rect x="51.7647" y="24.0809" width="4.70588" height="4.81618" fill="#ACA9A9"/>
<rect x="51.7647" y="19.2648" width="4.70588" height="4.81618" fill="#ACA9A9"/>
<rect x="56.4706" y="19.2648" width="4.70588" height="4.81618" fill="#ACA9A9"/>
<rect x="56.4706" y="14.4485" width="4.70588" height="4.81618" fill="#ACA9A9"/>
<rect x="61.1765" y="14.4485" width="4.70588" height="4.81618" fill="#ACA9A9"/>
<rect x="65.8823" y="14.4485" width="4.70588" height="4.81618" fill="#ACA9A9"/>
<rect x="65.8823" y="19.2648" width="4.70588" height="4.81618" fill="#ACA9A9"/>
<rect x="70.5882" y="19.2648" width="4.70588" height="4.81618" fill="black"/>
<rect x="75.2941" y="19.2648" width="4.70588" height="4.81618" fill="black"/>
<rect x="61.1765" y="19.2648" width="4.70588" height="4.81618" fill="black"/>
<rect x="28.2353" y="24.0809" width="4.70588" height="4.81618" fill="#ACA9A9"/>
<rect x="18.8235" y="14.4485" width="4.70588" height="4.81618" fill="#ACA9A9"/>
<rect x="9.41177" y="4.81616" width="4.70588" height="4.81618" fill="#ACA9A9"/>
<rect x="14.1176" y="9.63232" width="4.70588" height="4.81618" fill="#8C6A6A"/>
<rect x="4.70592" width="4.70588" height="4.81618" fill="#8C6A6A"/>
<rect x="32.9412" y="14.4485" width="4.70588" height="4.81618" fill="#ACA9A9"/>
<rect x="23.5294" y="4.81616" width="4.70588" height="4.81618" fill="#ACA9A9"/>
<rect x="28.2353" y="9.63232" width="4.70588" height="4.81618" fill="#8C6A6A"/>
<rect x="18.8235" width="4.70588" height="4.81618" fill="#8C6A6A"/>
<rect x="32.9412" y="9.63232" width="4.70588" height="4.81618" fill="#8C6A6A"/>
<rect x="23.5294" width="4.70588" height="4.81618" fill="#8C6A6A"/>
<rect x="47.0588" y="24.0809" width="4.70588" height="4.81618" fill="#ACA9A9"/>
<rect x="23.5294" y="24.0809" width="4.70588" height="4.81618" fill="#ACA9A9"/>
<rect x="14.1176" y="14.4485" width="4.70588" height="4.81618" fill="#ACA9A9"/>
<rect x="4.70592" y="4.81616" width="4.70588" height="4.81618" fill="#ACA9A9"/>
<rect x="9.41177" y="9.63232" width="4.70588" height="4.81618" fill="#8C6A6A"/>
<rect width="4.70588" height="4.81618" fill="#8C6A6A"/>
<rect x="37.647" y="48.1617" width="4.70588" height="4.81618" fill="#E8DADA"/>
<rect x="32.9412" y="43.3456" width="4.70588" height="4.81618" fill="#E8DADA"/>
<rect x="32.9412" y="38.5294" width="4.70588" height="4.81618" fill="#E8DADA"/>
<rect x="42.3529" y="33.7133" width="4.70588" height="4.81618" fill="#E8DADA"/>
<rect x="37.647" y="38.5294" width="4.70588" height="4.81618" fill="#E8DADA"/>
<rect x="47.0588" y="33.7133" width="4.70588" height="4.81618" fill="#E8DADA"/>
<rect x="32.9412" y="52.978" width="4.70588" height="4.81618" fill="#ACA9A9"/>
<rect x="37.647" y="52.978" width="4.70588" height="4.81618" fill="#ACA9A9"/>
<rect x="28.2353" y="62.6102" width="4.70588" height="4.81618" fill="#ACA9A9"/>
<rect x="51.7647" y="52.978" width="4.70588" height="4.81618" fill="#A7CB5C"/>
<rect x="51.7647" y="48.1617" width="4.70588" height="4.81618" fill="#A7CB5C"/>
<rect x="51.7647" y="38.5294" width="4.70588" height="4.81618" fill="#A7CB5C"/>
<rect x="61.1765" y="33.7133" width="4.70588" height="4.81618" fill="#A7CB5C"/>
<rect x="61.1765" y="28.8971" width="4.70588" height="4.81618" fill="#A7CB5C"/>
<rect x="47.0588" y="43.3456" width="4.70588" height="4.81618" fill="#A7CB5C"/>
<rect x="28.2353" y="57.7941" width="4.70588" height="4.81618" fill="#ACA9A9"/>
<rect x="32.9412" y="62.6102" width="4.70588" height="4.81618" fill="#ACA9A9"/>
<rect x="56.4706" y="52.978" width="4.70588" height="4.81618" fill="#A7CB5C"/>
<rect x="56.4706" y="48.1617" width="4.70588" height="4.81618" fill="#A7CB5C"/>
<rect x="56.4706" y="38.5294" width="4.70588" height="4.81618" fill="#A7CB5C"/>
<rect x="51.7647" y="43.3456" width="4.70588" height="4.81618" fill="#A7CB5C"/>
<rect x="32.9412" y="57.7941" width="4.70588" height="4.81618" fill="#ACA9A9"/>
<rect x="37.647" y="62.6102" width="4.70588" height="4.81618" fill="#ACA9A9"/>
<rect x="61.1765" y="52.978" width="4.70588" height="4.81618" fill="#A7CB5C"/>
<rect x="61.1765" y="48.1617" width="4.70588" height="4.81618" fill="#A7CB5C"/>
<rect x="61.1765" y="38.5294" width="4.70588" height="4.81618" fill="#A7CB5C"/>
<rect x="56.4706" y="43.3456" width="4.70588" height="4.81618" fill="#A7CB5C"/>
<rect x="65.8823" y="48.1617" width="4.70588" height="4.81618" fill="#A7CB5C"/>
<rect x="65.8823" y="38.5294" width="4.70588" height="4.81618" fill="#A7CB5C"/>
<rect x="61.1765" y="43.3456" width="4.70588" height="4.81618" fill="#A7CB5C"/>
<rect x="65.8823" y="43.3456" width="4.70588" height="4.81618" fill="#A7CB5C"/>
<rect x="37.647" y="57.7941" width="4.70588" height="4.81618" fill="#ACA9A9"/>
<rect x="42.3529" y="57.7941" width="4.70588" height="4.81618" fill="#ACA9A9"/>
<rect x="28.2353" y="67.4265" width="4.70588" height="4.81618" fill="#ACA9A9"/>
<rect x="32.9412" y="67.4265" width="4.70588" height="4.81618" fill="#ACA9A9"/>
</svg>
