<svg width="88" height="56" viewBox="0 0 88 56" fill="none" xmlns="http://www.w3.org/2000/svg">
<rect y="8" width="8" height="8" fill="black"/>
<rect y="16" width="8" height="8" fill="black"/>
<rect x="8" y="24" width="8" height="8" fill="black"/>
<rect x="16" y="32" width="8" height="8" fill="black"/>
<rect x="8" y="40" width="8" height="8" fill="black"/>
<rect x="16" y="40" width="16" height="8" fill="#A854EA"/>
<rect x="56" y="40" width="16" height="8" fill="#A854EA"/>
<rect x="24" y="32" width="16" height="8" fill="#A854EA"/>
<rect x="48" y="32" width="16" height="8" fill="#A854EA"/>
<rect x="16" y="24" width="24" height="8" fill="#A854EA"/>
<rect x="48" y="24" width="24" height="8" fill="#A854EA"/>
<rect x="8" y="16" width="8" height="8" fill="#A854EA"/>
<rect x="24" y="16" width="8" height="8" fill="#A854EA"/>
<rect x="16" y="16" width="8" height="8" fill="#C88AF9"/>
<rect x="56" y="16" width="24" height="8" fill="#A854EA"/>
<rect x="8" y="8" width="16" height="8" fill="#A854EA"/>
<rect x="64" y="8" width="16" height="8" fill="#A854EA"/>
<rect x="16" y="48" width="8" height="8" fill="black"/>
<rect x="24" y="48" width="8" height="8" fill="black"/>
<rect x="8" width="8" height="8" fill="black"/>
<rect x="16" width="8" height="8" fill="black"/>
<rect x="24" y="8" width="8" height="8" fill="black"/>
<rect x="32" y="16" width="8" height="8" fill="black"/>
<rect x="40" y="24" width="8" height="8" fill="black"/>
<rect x="48" y="16" width="8" height="8" fill="black"/>
<rect x="56" y="8" width="8" height="8" fill="black"/>
<rect x="64" width="8" height="8" fill="black"/>
<rect x="72" width="8" height="8" fill="black"/>
<rect x="40" y="32" width="8" height="8" fill="black"/>
<rect x="48" y="40" width="8" height="8" fill="black"/>
<rect x="56" y="48" width="8" height="8" fill="black"/>
<rect x="64" y="48" width="8" height="8" fill="black"/>
<rect x="72" y="40" width="8" height="8" fill="black"/>
<rect x="64" y="32" width="8" height="8" fill="black"/>
<rect x="72" y="24" width="8" height="8" fill="black"/>
<rect x="80" y="16" width="8" height="8" fill="black"/>
<rect x="80" y="8" width="8" height="8" fill="black"/>
<rect x="32" y="40" width="8" height="8" fill="black"/>
</svg>
