<svg width="98" height="130" viewBox="0 0 98 130" fill="none" xmlns="http://www.w3.org/2000/svg">
<rect x="87.1823" y="18.0674" width="4.30176" height="4.58855" fill="#E58073"/>
<rect x="78.0053" y="16.6335" width="4.30176" height="4.58855" fill="#E58073"/>
<rect x="81.7335" y="14.4826" width="4.30176" height="4.58855" fill="#D57C70"/>
<rect x="87.1823" y="8.46014" width="4.30176" height="4.58855" fill="#D57C70"/>
<rect x="78.5789" y="15.343" width="4.30176" height="4.58855" fill="#D57C70"/>
<rect x="76.4279" y="12.1883" width="4.30176" height="4.58855" fill="#D57C70"/>
<rect x="81.8769" y="6.16583" width="4.30176" height="4.58855" fill="#D57C70"/>
<rect x="74.4205" y="14.0524" width="4.30176" height="4.58855" fill="#D57C70"/>
<rect x="79.8693" y="8.02991" width="4.30176" height="4.58855" fill="#D57C70"/>
<rect x="41.1534" y="16.2032" width="4.30176" height="4.30176" fill="#98BD4C"/>
<rect x="36.8517" y="10.1808" width="4.30176" height="4.30176" fill="#98BD4C"/>
<rect x="39.863" y="19.7881" width="4.30176" height="4.30176" fill="#BAF246"/>
<rect x="10.4677" y="24.5201" width="4.30176" height="4.30176" fill="#291D20"/>
<rect x="56.6398" y="39.0026" width="4.30176" height="4.30176" fill="#98BD4C"/>
<rect x="56.4964" y="39.7196" width="4.30176" height="4.30176" fill="#98BD4C"/>
<rect x="34.7009" y="95.7859" width="4.30176" height="4.30176" fill="#A7453A"/>
<rect x="36.8517" y="89.62" width="12.9053" height="8.60352" fill="#DFE0DF"/>
<rect x="36.8517" y="81.1599" width="12.9053" height="8.60352" fill="#DFE0DF"/>
<rect x="49.7571" y="89.62" width="12.9053" height="8.60352" fill="#DFE0DF"/>
<rect x="49.7571" y="81.1599" width="12.9053" height="8.60352" fill="#DFE0DF"/>
<rect x="52.6248" y="89.62" width="12.9053" height="8.60352" fill="#DFE0DF"/>
<rect x="52.6248" y="81.1599" width="12.9053" height="8.60352" fill="#DFE0DF"/>
<rect x="52.6248" y="73.2734" width="12.9053" height="8.60352" fill="#DFE0DF"/>
<rect x="43.7345" y="74.994" width="12.9053" height="8.60352" fill="#DFE0DF"/>
<rect x="50.1873" y="67.8245" width="12.9053" height="8.60352" fill="#DFE0DF"/>
<rect x="39.7196" y="77.2883" width="12.9053" height="8.60352" fill="#DFE0DF"/>
<rect x="30.3992" y="101.091" width="4.30176" height="4.30176" fill="#A7453A"/>
<rect x="31.5462" y="103.672" width="4.30176" height="4.30176" fill="#A7453A"/>
<rect x="27.8181" y="104.676" width="4.30176" height="4.30176" fill="#A7453A"/>
<rect x="26.0974" y="106.684" width="4.30176" height="4.30176" fill="#A7453A"/>
<rect x="23.9465" y="108.978" width="4.30176" height="4.30176" fill="#A7453A"/>
<rect x="22.2258" y="108.978" width="4.30176" height="4.30176" fill="#A7453A"/>
<rect x="21.3653" y="111.129" width="4.30176" height="4.30176" fill="#A7453A"/>
<rect x="22.2258" y="113.997" width="4.30176" height="4.30176" fill="#A7453A"/>
<rect x="21.7957" y="116.721" width="4.30176" height="4.30176" fill="#A7453A"/>
<rect x="24.8068" y="116.148" width="4.30176" height="4.30176" fill="#A7453A"/>
<rect x="26.9577" y="118.872" width="4.30176" height="4.30176" fill="#A7453A"/>
<rect x="27.2445" y="121.883" width="4.30176" height="4.30176" fill="#A7453A"/>
<rect x="30.8293" y="120.449" width="4.30176" height="4.30176" fill="#A7453A"/>
<rect x="33.6972" y="121.883" width="4.30176" height="4.30176" fill="#A7453A"/>
<rect x="36.8517" y="123.747" width="4.30176" height="4.30176" fill="#A7453A"/>
<rect x="42.0139" y="123.174" width="4.30176" height="4.30176" fill="#A7453A"/>
<rect x="46.4591" y="124.034" width="4.30176" height="4.30176" fill="#A7453A"/>
<rect x="49.7571" y="123.747" width="4.30176" height="4.30176" fill="#A7453A"/>
<rect x="52.6248" y="124.321" width="4.30176" height="4.30176" fill="#A7453A"/>
<rect x="56.6398" y="124.321" width="4.30176" height="4.30176" fill="#A7453A"/>
<rect x="60.9417" y="124.321" width="4.30176" height="4.30176" fill="#A7453A"/>
<rect x="64.8131" y="124.321" width="4.30176" height="4.30176" fill="#A7453A"/>
<rect x="68.1112" y="121.883" width="4.30176" height="4.30176" fill="#A7453A"/>
<rect x="71.5526" y="120.449" width="4.30176" height="4.30176" fill="#A7453A"/>
<rect x="73.2734" y="116.148" width="4.30176" height="4.30176" fill="#A7453A"/>
<rect x="75.8544" y="117.008" width="4.30176" height="4.30176" fill="#A7453A"/>
<rect x="76.8582" y="115.287" width="4.30176" height="4.30176" fill="#A7453A"/>
<rect x="78.0053" y="112.706" width="4.30176" height="4.30176" fill="#A7453A"/>
<rect x="76.8582" y="109.695" width="4.30176" height="4.30176" fill="#A7453A"/>
<rect x="74.2771" y="108.978" width="4.30176" height="4.30176" fill="#A7453A"/>
<rect x="73.4168" y="105.823" width="4.30176" height="4.30176" fill="#A7453A"/>
<rect x="69.9754" y="105.393" width="4.30176" height="4.30176" fill="#A7453A"/>
<rect x="70.2621" y="101.091" width="4.30176" height="4.30176" fill="#A7453A"/>
<rect x="66.3905" y="100.374" width="4.30176" height="4.30176" fill="#A7453A"/>
<rect x="65.2434" y="96.7897" width="4.30176" height="4.30176" fill="#A7453A"/>
<rect x="41.1534" y="124.751" width="5.73568" height="4.30176" fill="#A7453A"/>
<rect x="36.8517" y="97.5067" width="12.9053" height="8.60352" fill="#C0564B"/>
<rect x="32.55" y="102.525" width="12.9053" height="8.60352" fill="#C0564B"/>
<rect x="28.2482" y="106.827" width="12.9053" height="8.60352" fill="#C0564B"/>
<rect x="23.9465" y="111.129" width="12.9053" height="8.60352" fill="#C0564B"/>
<rect x="28.2482" y="115.431" width="12.9053" height="8.60352" fill="#C0564B"/>
<rect x="36.8517" y="118.298" width="12.9053" height="8.60352" fill="#C0564B"/>
<rect x="49.7571" y="118.298" width="12.9053" height="8.60352" fill="#C0564B"/>
<rect x="55.0626" y="118.298" width="12.9053" height="8.60352" fill="#C0564B"/>
<rect x="54.0589" y="115.431" width="12.9053" height="8.60352" fill="#C0564B"/>
<rect x="62.6623" y="115.431" width="12.9053" height="8.60352" fill="#C0564B"/>
<rect x="39.0027" y="111.129" width="12.9053" height="8.60352" fill="#C0564B"/>
<rect x="66.9641" y="111.129" width="12.9053" height="8.60352" fill="#C0564B"/>
<rect x="62.6623" y="106.827" width="12.9053" height="8.60352" fill="#C0564B"/>
<rect x="59.2209" y="102.525" width="12.9053" height="8.60352" fill="#C0564B"/>
<rect x="54.0589" y="97.5067" width="12.9053" height="8.60352" fill="#C0564B"/>
<rect x="46.3157" y="97.5067" width="12.9053" height="8.60352" fill="#C0564B"/>
<rect x="39.863" y="108.835" width="12.9053" height="8.60352" fill="#C0564B"/>
<rect x="59.2209" y="106.827" width="12.9053" height="8.60352" fill="#C0564B"/>
<rect x="49.7571" y="106.11" width="12.9053" height="8.60352" fill="#C0564B"/>
<rect x="50.474" y="109.695" width="12.9053" height="8.60352" fill="#C0564B"/>
<rect x="41.5838" y="103.672" width="12.9053" height="8.60352" fill="#C0564B"/>
<rect x="32.55" y="98.2236" width="4.30176" height="4.30176" fill="#A7453A"/>
<rect x="41.1534" y="102.525" width="4.30176" height="4.30176" fill="#A7453A" fill-opacity="0.6"/>
<rect x="36.8517" y="106.827" width="4.30176" height="4.30176" fill="#A7453A" fill-opacity="0.6"/>
<rect x="41.1534" y="106.827" width="4.30176" height="4.30176" fill="#A7453A" fill-opacity="0.6"/>
<rect x="45.8855" y="106.684" width="4.30176" height="4.30176" fill="#A7453A" fill-opacity="0.6"/>
<rect x="37.2818" y="111.129" width="4.30176" height="4.30176" fill="#A7453A" fill-opacity="0.6"/>
<rect x="32.55" y="110.985" width="4.30176" height="4.30176" fill="#A7453A" fill-opacity="0.6"/>
<rect x="34.2708" y="107.544" width="4.30176" height="4.30176" fill="#A7453A" fill-opacity="0.6"/>
<rect x="29.969" y="113.28" width="4.30176" height="4.30176" fill="#A7453A" fill-opacity="0.6"/>
<rect x="36.2782" y="112.563" width="4.30176" height="4.30176" fill="#A7453A" fill-opacity="0.6"/>
<rect x="38.1423" y="116.148" width="4.30176" height="4.30176" fill="#A7453A" fill-opacity="0.6"/>
<rect x="51.9079" y="122.6" width="4.30176" height="4.30176" fill="#A7453A" fill-opacity="0.6"/>
<rect x="54.2022" y="120.449" width="4.30176" height="4.30176" fill="#A7453A" fill-opacity="0.6"/>
<rect x="57.5003" y="123.174" width="4.30176" height="4.30176" fill="#A7453A" fill-opacity="0.6"/>
<rect x="36.8517" y="76.8582" width="4.30176" height="4.30176" fill="#B28C00"/>
<rect x="39.4328" y="73.2734" width="4.30176" height="4.30176" fill="#B28C00"/>
<rect x="43.3044" y="70.6923" width="4.30176" height="4.30176" fill="#B28C00"/>
<rect x="45.8855" y="70.6923" width="4.30176" height="4.30176" fill="#B28C00"/>
<rect x="45.8855" y="66.9641" width="4.30176" height="4.30176" fill="#B28C00"/>
<rect x="49.7571" y="69.4018" width="4.30176" height="4.30176" fill="#B28C00"/>
<rect x="54.0589" y="65.1" width="4.30176" height="4.30176" fill="#B28C00"/>
<rect x="36.8517" y="72.5564" width="4.30176" height="4.30176" fill="#402E32"/>
<rect x="36.8517" y="68.5414" width="4.30176" height="4.30176" fill="#402E32"/>
<rect x="35.4178" y="66.9641" width="4.30176" height="4.30176" fill="#402E32"/>
<rect x="36.5649" y="68.2546" width="4.30176" height="4.30176" fill="#402E32"/>
<rect x="35.4178" y="68.2546" width="4.30176" height="4.30176" fill="#402E32"/>
<rect x="33.2669" y="63.9528" width="4.30176" height="4.30176" fill="#402E32"/>
<rect x="31.1161" y="59.6511" width="4.30176" height="4.30176" fill="#291D20"/>
<rect x="28.9651" y="55.3493" width="4.30176" height="4.30176" fill="#402E32"/>
<rect x="26.8144" y="51.0475" width="4.30176" height="4.30176" fill="#402E32"/>
<rect x="31.1161" y="51.0475" width="4.30176" height="4.30176" fill="#402E32"/>
<rect x="35.4178" y="51.0475" width="4.30176" height="4.30176" fill="#5D3D44"/>
<rect x="40.8667" y="47.8929" width="4.30176" height="4.30176" fill="#402E32"/>
<rect x="39.7196" y="51.0475" width="4.30176" height="4.30176" fill="#402E32"/>
<rect x="41.1534" y="51.0475" width="4.30176" height="4.30176" fill="#5D3D44"/>
<rect x="41.1534" y="46.7458" width="4.30176" height="4.30176" fill="#402E32"/>
<rect x="36.8517" y="46.7458" width="4.30176" height="4.30176" fill="#5D3D44"/>
<rect x="32.6933" y="46.7458" width="4.30176" height="4.30176" fill="#402E32"/>
<rect x="28.9651" y="46.7458" width="4.30176" height="4.30176" fill="#291D20"/>
<rect x="24.6634" y="46.7458" width="4.30176" height="4.30176" fill="#402E32"/>
<rect x="24.2332" y="50.0438" width="4.30176" height="4.30176" fill="#402E32"/>
<rect x="22.0824" y="45.7421" width="4.30176" height="4.30176" fill="#402E32"/>
<rect x="23.3729" y="41.8705" width="4.30176" height="4.30176" fill="#402E32"/>
<rect x="19.9315" y="41.4403" width="4.30176" height="4.30176" fill="#402E32"/>
<rect x="17.7807" y="37.1385" width="4.30176" height="4.30176" fill="#402E32"/>
<rect x="12.6185" y="32.8368" width="4.30176" height="4.30176" fill="#402E32"/>
<rect x="6.88286" y="28.2482" width="4.30176" height="4.30176" fill="#402E32"/>
<rect y="18.3542" width="4.30176" height="4.30176" fill="#402E32"/>
<rect x="17.7807" y="29.9689" width="4.30176" height="4.30176" fill="#402E32"/>
<rect x="10.8979" y="20.0749" width="4.30176" height="4.30176" fill="#402E32"/>
<rect x="12.3317" y="25.3804" width="4.30176" height="4.30176" fill="#402E32"/>
<rect x="5.16206" y="15.4863" width="4.30176" height="4.30176" fill="#402E32"/>
<rect x="39.7196" y="70.9791" width="4.30176" height="4.30176" fill="#402E32"/>
<rect x="40.8667" y="68.2546" width="5.73568" height="4.30176" fill="#402E32"/>
<rect x="40.8667" y="63.9528" width="5.73568" height="4.30176" fill="#402E32"/>
<rect x="40.8667" y="59.6511" width="5.73568" height="4.30176" fill="#402E32"/>
<rect x="40.8667" y="55.3493" width="5.73568" height="4.30176" fill="#402E32"/>
<rect x="37.5688" y="64.6698" width="5.73568" height="4.30176" fill="#291D20"/>
<rect x="37.5688" y="60.5115" width="5.73568" height="4.30176" fill="#402E32"/>
<rect x="35.4178" y="59.9379" width="5.73568" height="4.30176" fill="#402E32"/>
<rect x="43.7345" y="77.0015" width="4.15837" height="4.01498" fill="#402E32"/>
<rect x="36.5649" y="55.3493" width="5.73568" height="4.58855" fill="#402E32"/>
<rect x="31.9764" y="55.3493" width="5.73568" height="4.58855" fill="#402E32"/>
<rect x="54.0589" y="60.7983" width="4.30176" height="4.30176" fill="#402E32"/>
<rect x="54.0589" y="56.4965" width="4.30176" height="4.30176" fill="#402E32"/>
<rect x="58.3606" y="56.4965" width="4.30176" height="4.30176" fill="#402E32"/>
<rect x="49.7571" y="69.115" width="4.30176" height="4.30176" fill="#402E32"/>
<rect x="54.0589" y="69.115" width="4.30176" height="4.30176" fill="#FD8B7C"/>
<rect x="58.3606" y="69.115" width="4.30176" height="4.30176" fill="#FD8B7C"/>
<rect x="55.0626" y="80.2996" width="4.30176" height="4.30176" fill="#FD8B7C"/>
<rect x="58.3606" y="72.5564" width="4.30176" height="4.30176" fill="#FD8B7C"/>
<rect x="58.7908" y="76.7147" width="4.30176" height="4.30176" fill="#FD8B7C"/>
<rect x="58.3606" y="65.1" width="4.30176" height="4.30176" fill="#FD8B7C"/>
<rect x="62.6623" y="69.115" width="4.30176" height="4.30176" fill="#FD8B7C"/>
<rect x="62.6623" y="65.1" width="4.30176" height="4.30176" fill="#FD8B7C"/>
<rect x="62.6623" y="60.7983" width="4.30176" height="4.30176" fill="#FD8B7C"/>
<rect x="64.5263" y="60.7983" width="4.30176" height="4.30176" fill="#FD8B7C"/>
<rect x="58.3606" y="60.7983" width="4.30176" height="4.30176" fill="#FD8B7C"/>
<rect x="62.6623" y="56.4965" width="4.30176" height="4.30176" fill="#FD8B7C"/>
<rect x="66.1038" y="56.4965" width="4.30176" height="4.30176" fill="#FD8B7C"/>
<rect x="67.9678" y="52.1947" width="4.30176" height="4.30176" fill="#FD8B7C"/>
<rect x="65.817" y="50.0438" width="4.30176" height="4.30176" fill="#FD8B7C"/>
<rect x="63.9528" y="52.9117" width="4.30176" height="4.30176" fill="#FD8B7C"/>
<rect x="61.0851" y="52.1947" width="4.30176" height="4.30176" fill="#FD8B7C"/>
<rect x="58.2172" y="52.1947" width="4.30176" height="4.30176" fill="#FD8B7C"/>
<rect x="58.3606" y="47.8929" width="4.30176" height="4.30176" fill="#FD8B7C"/>
<rect x="62.3756" y="48.0364" width="4.30176" height="4.30176" fill="#FD8B7C"/>
<rect x="66.2471" y="46.7458" width="4.30176" height="4.30176" fill="#FD8B7C"/>
<rect x="68.3979" y="48.8967" width="4.30176" height="4.30176" fill="#E68073"/>
<rect x="63.666" y="50.9042" width="4.30176" height="4.30176" fill="#E68073"/>
<rect x="66.1038" y="43.0176" width="4.30176" height="4.30176" fill="#E68073"/>
<rect x="63.8094" y="46.8892" width="4.30176" height="4.30176" fill="#E68073"/>
<rect x="66.5339" y="46.459" width="4.30176" height="4.30176" fill="#E68073"/>
<rect x="70.1187" y="46.7458" width="4.30176" height="4.30176" fill="#E68073"/>
<rect x="72.8433" y="39.2894" width="4.30176" height="4.30176" fill="#E68073"/>
<rect x="71.696" y="34.7009" width="4.30176" height="4.30176" fill="#E68073"/>
<rect x="79.009" y="32.55" width="4.30176" height="4.30176" fill="#E68073"/>
<rect x="78.7223" y="28.6784" width="4.30176" height="4.30176" fill="#E68073"/>
<rect x="69.832" y="24.5201" width="4.30176" height="4.30176" fill="#E68073"/>
<rect x="80.2995" y="23.2295" width="4.30176" height="4.44515" fill="#E68073"/>
<rect x="71.4092" y="19.0711" width="4.30176" height="4.44515" fill="#E68073"/>
<rect x="68.5413" y="29.252" width="4.30176" height="4.44515" fill="#E68073"/>
<rect x="70.2621" y="42.7308" width="4.30176" height="4.30176" fill="#9C7D08"/>
<rect x="73.5602" y="43.3044" width="4.87533" height="4.30176" fill="#E68073"/>
<rect x="68.2545" y="39.5762" width="4.87533" height="4.30176" fill="#E68073"/>
<rect x="67.1075" y="35.5612" width="4.87533" height="4.30176" fill="#E68073"/>
<rect x="72.8433" y="33.8405" width="4.87533" height="4.30176" fill="#E68073"/>
<rect x="72.5563" y="30.1123" width="4.87533" height="4.30176" fill="#E68073"/>
<rect x="75.711" y="23.5163" width="4.87533" height="4.44515" fill="#E68073"/>
<rect x="66.8207" y="19.3579" width="4.87533" height="4.44515" fill="#E68073"/>
<rect x="68.1112" y="27.1011" width="4.87533" height="4.44515" fill="#E68073"/>
<rect x="69.9754" y="36.4216" width="4.87533" height="4.30176" fill="#E68073"/>
<rect x="68.1112" y="32.8368" width="4.87533" height="4.30176" fill="#D47C70"/>
<rect x="75.1374" y="30.9727" width="4.87533" height="4.30176" fill="#E68073"/>
<rect x="75.9977" y="26.9577" width="4.87533" height="4.30176" fill="#D47C70"/>
<rect x="67.1075" y="22.7993" width="4.87533" height="4.30176" fill="#E68073"/>
<rect x="76.4279" y="19.7881" width="4.87533" height="4.44515" fill="#E68073"/>
<rect x="68.5413" y="16.0599" width="4.87533" height="4.44515" fill="#E68073"/>
<rect x="71.9828" y="26.3842" width="4.87533" height="4.44515" fill="#E68073"/>
<rect x="63.0925" y="22.2258" width="4.87533" height="4.44515" fill="#E68073"/>
<rect x="75.8544" y="42.5874" width="4.30176" height="4.30176" fill="#FD8B7C"/>
<rect x="78.0053" y="38.2856" width="4.30176" height="4.30176" fill="#FD8B7C"/>
<rect x="77.145" y="34.7009" width="4.30176" height="4.30176" fill="#FD8B7C"/>
<rect x="82.5938" y="32.55" width="4.30176" height="4.30176" fill="#FD8B7C"/>
<rect x="83.3108" y="26.8143" width="4.30176" height="4.30176" fill="#FD8B7C"/>
<rect x="83.8843" y="15.7731" width="4.30176" height="4.30176" fill="#FD8B7C"/>
<rect x="80.1561" y="12.4751" width="4.30176" height="4.30176" fill="#FD8B7C"/>
<rect x="85.6051" y="6.45264" width="4.30176" height="4.30176" fill="#FD8B7C"/>
<rect x="85.0316" y="11.7582" width="4.30176" height="4.30176" fill="#E58073"/>
<rect x="90.4804" y="5.73566" width="4.30176" height="4.30176" fill="#E58073"/>
<rect x="82.3071" y="10.4676" width="4.30176" height="4.30176" fill="#E58073"/>
<rect x="87.7559" y="4.44513" width="4.30176" height="4.30176" fill="#E58073"/>
<rect x="87.6125" y="9.6073" width="4.30176" height="4.30176" fill="#E58073"/>
<rect x="93.0615" y="3.58478" width="4.30176" height="4.30176" fill="#E58073"/>
<rect x="87.8993" y="13.9091" width="4.30176" height="4.30176" fill="#FD8B7C"/>
<rect x="93.3483" y="7.88654" width="4.30176" height="4.30176" fill="#FD8B7C"/>
<rect x="90.0502" y="11.4714" width="4.30176" height="4.30176" fill="#FD8B7C"/>
<rect x="90.9105" y="7.45642" width="4.30176" height="4.30176" fill="#FD8B7C"/>
<rect x="74.4205" y="22.6559" width="4.30176" height="4.30176" fill="#FD7361"/>
<rect x="85.7485" y="22.3692" width="4.30176" height="4.58855" fill="#FD8B7C"/>
<rect x="79.5826" y="18.6409" width="4.30176" height="4.58855" fill="#FD8B7C"/>
<rect x="72.8433" y="18.0674" width="4.30176" height="4.58855" fill="#FD8B7C"/>
<rect x="75.8544" y="38.2856" width="4.30176" height="4.30176" fill="#FD8B7C"/>
<rect x="74.2771" y="35.848" width="4.30176" height="4.30176" fill="#FD8B7C"/>
<rect x="79.3322" y="34.4109" width="4.30176" height="4.30176" transform="rotate(-7.13086 79.3322 34.4109)" fill="#FD8B7C"/>
<rect x="81.3033" y="29.252" width="4.30176" height="4.30176" fill="#FD8B7C"/>
<rect x="72.4129" y="25.0936" width="4.30176" height="4.30176" fill="#FD8B7C"/>
<rect x="83.7409" y="19.5013" width="4.30176" height="4.58855" fill="#FD8B7C"/>
<rect x="74.1337" y="15.343" width="4.30176" height="4.58855" fill="#FD8B7C"/>
<rect x="72.8433" y="10.611" width="4.30176" height="4.58855" fill="#FD8B7C"/>
<rect x="78.2921" y="4.58856" width="4.30176" height="4.58855" fill="#FD8B7C"/>
<rect x="70.4055" y="13.6223" width="4.30176" height="4.58855" fill="#FD8B7C"/>
<rect x="75.8544" y="7.59973" width="4.30176" height="4.58855" fill="#FD8B7C"/>
<rect x="79.4391" y="25.9906" width="4.30176" height="4.58855" transform="rotate(-0.488257 79.4391 25.9906)" fill="#FD8B7C"/>
<rect x="70.5489" y="21.8322" width="4.30176" height="4.58855" transform="rotate(-0.488257 70.5489 21.8322)" fill="#FD8B7C"/>
<rect x="63.5226" y="67.3943" width="4.30176" height="4.30176" fill="#FD8B7C"/>
<rect x="65.1001" y="63.0925" width="4.30176" height="4.30176" fill="#FD8B7C"/>
<rect x="67.2508" y="58.7908" width="4.30176" height="4.30176" fill="#FD8B7C"/>
<rect x="69.4018" y="54.9192" width="4.30176" height="4.30176" fill="#FD8B7C"/>
<rect x="71.5526" y="50.6174" width="4.30176" height="4.30176" fill="#FD8B7C"/>
<rect x="73.7036" y="46.8892" width="4.30176" height="4.30176" fill="#FD8B7C"/>
<rect x="62.6623" y="66.9641" width="4.30176" height="4.30176" fill="#FD8B7C"/>
<rect x="62.6623" y="68.9716" width="4.30176" height="4.30176" fill="#FD8B7C"/>
<rect x="49.7571" y="56.4965" width="4.30176" height="4.30176" fill="#B28C00"/>
<rect x="54.0589" y="52.1947" width="4.30176" height="4.30176" fill="#B28C00"/>
<rect x="49.7571" y="52.1947" width="4.30176" height="4.30176" fill="#B28C00"/>
<rect x="47.176" y="43.878" width="4.30176" height="4.30176" fill="#B28C00"/>
<rect x="54.489" y="46.8892" width="4.30176" height="4.30176" fill="#B28C00"/>
<rect x="53.4853" y="40.1498" width="4.30176" height="4.30176" fill="#B28C00"/>
<rect x="39.863" y="42.7308" width="4.30176" height="4.30176" fill="#B28C00"/>
<rect x="43.7345" y="35.9914" width="4.30176" height="4.30176" fill="#B28C00"/>
<rect x="43.5912" y="39.2894" width="4.30176" height="4.30176" fill="#B28C00"/>
<rect x="29.969" y="41.8705" width="4.30176" height="4.30176" fill="#B28C00"/>
<rect x="33.8406" y="35.1311" width="4.30176" height="4.30176" fill="#B28C00"/>
<rect x="56.2096" y="33.6971" width="4.30176" height="4.30176" fill="#98BD4C"/>
<rect x="65.1001" y="47.0326" width="4.30176" height="4.30176" fill="#A7CB5C"/>
<rect x="56.6398" y="51.7645" width="4.30176" height="4.30176" fill="#A7CB5C"/>
<rect x="59.0775" y="47.4628" width="4.30176" height="4.30176" fill="#A7CB5C"/>
<rect x="57.787" y="44.1647" width="4.30176" height="4.30176" fill="#A7CB5C"/>
<rect x="58.3606" y="39.863" width="4.30176" height="4.30176" fill="#A7CB5C"/>
<rect x="58.2172" y="35.9914" width="4.30176" height="4.30176" fill="#A7CB5C"/>
<rect x="54.2022" y="38.7159" width="4.30176" height="4.30176" fill="#98BD4C"/>
<rect x="40.5799" y="41.2969" width="4.30176" height="4.30176" fill="#98BD4C"/>
<rect x="44.4515" y="34.5575" width="4.30176" height="4.30176" fill="#98BD4C"/>
<rect x="54.489" y="31.2595" width="4.30176" height="4.30176" fill="#98BD4C"/>
<rect x="40.8667" y="33.8405" width="4.30176" height="4.30176" fill="#98BD4C"/>
<rect x="44.7383" y="27.1011" width="4.30176" height="4.30176" fill="#98BD4C"/>
<rect x="41.4404" y="23.5163" width="4.30176" height="4.30176" fill="#98BD4C"/>
<rect x="36.4215" y="22.9427" width="4.30176" height="4.30176" fill="#98BD4C"/>
<rect x="50.474" y="27.8181" width="4.30176" height="4.30176" fill="#98BD4C"/>
<rect x="51.4777" y="32.1198" width="4.30176" height="3.44141" fill="#98BD4C"/>
<rect x="50.474" y="33.9839" width="4.30176" height="4.30176" fill="#98BD4C"/>
<rect x="36.8517" y="36.565" width="4.30176" height="4.30176" fill="#98BD4C"/>
<rect x="40.7233" y="29.8256" width="4.30176" height="4.30176" fill="#98BD4C"/>
<rect x="37.4254" y="26.2408" width="4.30176" height="4.30176" fill="#98BD4C"/>
<rect x="42.4441" y="19.5013" width="4.30176" height="4.30176" fill="#98BD4C"/>
<rect x="38.1423" y="13.4789" width="4.30176" height="4.30176" fill="#98BD4C"/>
<rect x="44.7383" y="20.6484" width="4.30176" height="4.30176" fill="#98BD4C"/>
<rect x="40.4365" y="14.626" width="4.30176" height="4.30176" fill="#98BD4C"/>
<rect x="30.5426" y="16.3467" width="4.30176" height="4.30176" fill="#98BD4C"/>
<rect x="46.4591" y="30.5425" width="4.30176" height="4.30176" fill="#98BD4C"/>
<rect x="43.161" y="26.9577" width="4.30176" height="4.30176" fill="#98BD4C"/>
<rect x="47.4628" y="34.2707" width="4.30176" height="3.44141" fill="#98BD4C"/>
<rect x="55.3493" y="28.3917" width="4.30176" height="4.30176" fill="#98BD4C"/>
<rect x="53.4853" y="34.7009" width="4.30176" height="4.30176" fill="#98BD4C"/>
<rect x="39.863" y="37.282" width="4.30176" height="4.30176" fill="#98BD4C"/>
<rect x="43.7345" y="30.5425" width="4.30176" height="4.30176" fill="#98BD4C"/>
<rect x="56.4964" y="37.5687" width="4.30176" height="4.30176" fill="#98BD4C"/>
<rect x="56.353" y="33.6971" width="4.30176" height="4.30176" fill="#98BD4C"/>
<rect x="56.6398" y="26.2408" width="4.30176" height="4.30176" fill="#98BD4C"/>
<rect x="52.6248" y="28.9652" width="4.30176" height="4.30176" fill="#98BD4C"/>
<rect x="56.353" y="35.848" width="4.30176" height="4.30176" fill="#98BD4C"/>
<rect x="56.6398" y="28.3917" width="4.30176" height="4.30176" fill="#98BD4C"/>
<rect x="52.6248" y="31.1161" width="4.30176" height="4.30176" fill="#98BD4C"/>
<rect x="39.0027" y="33.6971" width="4.30176" height="4.30176" fill="#98BD4C"/>
<rect x="42.8742" y="26.9577" width="4.30176" height="4.30176" fill="#98BD4C"/>
<rect x="39.7196" y="25.8105" width="4.30176" height="4.30176" fill="#98BD4C"/>
<rect x="32.8367" y="15.9166" width="4.30176" height="4.30176" fill="#98BD4C"/>
<rect x="32.1198" y="19.9315" width="4.30176" height="4.30176" fill="#738D3D"/>
<rect x="47.7495" y="27.9614" width="4.30176" height="4.30176" fill="#738D3D"/>
<rect x="37.1385" y="17.207" width="4.30176" height="4.30176" fill="#738D3D"/>
<rect x="37.1385" y="12.9053" width="4.30176" height="4.30176" fill="#98BD4C"/>
<rect x="33.1235" y="12.9053" width="4.30176" height="4.30176" fill="#738D3D"/>
<rect x="30.1124" y="12.0449" width="4.30176" height="4.30176" fill="#738D3D"/>
<rect x="63.0925" y="17.6373" width="4.30176" height="4.30176" fill="#738D3D"/>
<rect x="44.4515" y="24.3766" width="4.30176" height="4.30176" fill="#9FBE60"/>
<rect x="39.4328" y="21.939" width="4.30176" height="4.30176" fill="#9FBE60"/>
<rect x="36.1348" y="19.3579" width="4.30176" height="4.30176" fill="#9FBE60"/>
<rect x="51.7645" y="16.3467" width="4.30176" height="4.30176" fill="#9FBE60"/>
<rect x="47.4628" y="10.3242" width="4.30176" height="4.30176" fill="#9FBE60"/>
<rect x="59.3643" y="14.4826" width="4.30176" height="4.30176" fill="#9FBE60"/>
<rect x="55.0626" y="8.46014" width="4.30176" height="4.30176" fill="#9FBE60"/>
<rect x="50.1873" y="24.6635" width="4.30176" height="4.30176" fill="#98BD4C"/>
<rect x="45.1684" y="22.2258" width="4.30176" height="4.30176" fill="#98BD4C"/>
<rect x="40.8667" y="16.2032" width="4.30176" height="4.30176" fill="#98BD4C"/>
<rect x="48.4665" y="19.7881" width="4.30176" height="4.30176" fill="#98BD4C"/>
<rect x="44.1647" y="13.7657" width="4.30176" height="4.30176" fill="#98BD4C"/>
<rect x="49.6137" y="31.9764" width="4.30176" height="3.44141" fill="#9BCB39"/>
<rect x="60.7982" y="24.5201" width="4.30176" height="3.44141" fill="#9BCB39"/>
<rect x="56.2096" y="29.8256" width="4.30176" height="4.30176" fill="#98BD4C"/>
<rect x="56.353" y="25.5238" width="4.30176" height="4.30176" fill="#98BD4C"/>
<rect x="51.3344" y="23.0861" width="4.30176" height="4.30176" fill="#98BD4C"/>
<rect x="56.353" y="21.222" width="4.30176" height="4.30176" fill="#98BD4C"/>
<rect x="52.0513" y="15.1996" width="4.30176" height="4.30176" fill="#98BD4C"/>
<rect x="51.3344" y="18.7844" width="4.30176" height="4.30176" fill="#98BD4C"/>
<rect x="47.0326" y="12.7619" width="4.30176" height="4.30176" fill="#98BD4C"/>
<rect x="48.7532" y="14.4826" width="4.30176" height="4.30176" fill="#98BD4C"/>
<rect x="44.4515" y="8.46014" width="4.30176" height="4.30176" fill="#98BD4C"/>
<rect x="45.312" y="16.6335" width="4.30176" height="4.30176" fill="#BAF246"/>
<rect x="41.01" y="10.611" width="4.30176" height="4.30176" fill="#BAF246"/>
<rect x="45.4554" y="68.2546" width="4.30176" height="4.30176" fill="#B28C00"/>
<rect x="49.7571" y="64.8132" width="4.30176" height="4.30176" fill="#B28C00"/>
<rect x="49.9005" y="74.1337" width="4.30176" height="4.30176" fill="#B28C00"/>
<rect x="49.7571" y="60.7983" width="4.30176" height="4.30176" fill="#B28C00"/>
<rect x="45.4554" y="60.7983" width="4.30176" height="4.30176" fill="#B28C00"/>
<rect x="45.4554" y="56.4965" width="4.30176" height="4.30176" fill="#B28C00"/>
<rect x="45.4554" y="52.1947" width="4.30176" height="4.30176" fill="#B28C00"/>
<rect x="42.8742" y="43.878" width="4.30176" height="4.30176" fill="#B28C00"/>
<rect x="49.1834" y="46.6024" width="6.30925" height="5.87907" fill="#B28C00"/>
<rect x="49.1834" y="40.1498" width="4.30176" height="4.30176" fill="#B28C00"/>
<rect x="35.5612" y="42.7308" width="4.30176" height="4.30176" fill="#B28C00"/>
<rect x="39.4328" y="35.9914" width="4.30176" height="4.30176" fill="#B28C00"/>
<rect x="45.025" y="36.4216" width="4.30176" height="4.30176" fill="#B28C00"/>
<rect x="31.4029" y="39.0026" width="4.30176" height="4.30176" fill="#9C7D08"/>
<rect x="35.2744" y="32.2632" width="4.30176" height="4.30176" fill="#B28C00"/>
<rect x="28.3916" y="22.3692" width="4.30176" height="4.30176" fill="#B28C00"/>
<rect x="31.9764" y="28.6784" width="4.30176" height="4.30176" fill="#B28C00"/>
<rect x="25.0935" y="18.7844" width="4.30176" height="4.30176" fill="#B28C00"/>
<rect x="45.4554" y="47.8929" width="4.30176" height="4.30176" fill="#B28C00"/>
<rect x="42.8742" y="39.5762" width="4.30176" height="4.30176" fill="#B28C00"/>
<rect x="29.2519" y="42.8742" width="4.30176" height="4.30176" fill="#B28C00"/>
<rect x="33.1235" y="35.4178" width="4.30176" height="4.30176" fill="#B28C00"/>
<rect x="50.1873" y="42.5874" width="4.30176" height="4.30176" fill="#B28C00"/>
<rect x="49.1834" y="35.848" width="4.30176" height="4.30176" fill="#B28C00"/>
<rect x="35.5612" y="38.4291" width="4.30176" height="4.30176" fill="#B28C00"/>
<rect x="39.4328" y="31.6896" width="4.30176" height="4.30176" fill="#B28C00"/>
<rect x="32.55" y="21.7956" width="4.30176" height="4.30176" fill="#B28C00"/>
<rect x="36.1348" y="28.1049" width="4.30176" height="4.30176" fill="#B28C00"/>
<rect x="29.2519" y="18.2108" width="4.30176" height="4.30176" fill="#B28C00"/>
<rect x="41.01" y="36.1348" width="4.30176" height="4.30176" fill="#B28C00"/>
<rect x="27.3879" y="38.7159" width="4.30176" height="4.30176" fill="#B28C00"/>
<rect x="31.2595" y="31.9764" width="4.30176" height="4.30176" fill="#B28C00"/>
<rect x="24.3766" y="22.0824" width="4.30176" height="4.30176" fill="#B28C00"/>
<rect x="21.9391" y="24.6635" width="4.30176" height="4.30176" fill="#B28C00"/>
<rect x="24.9502" y="25.3804" width="4.30176" height="4.30176" fill="#9C7D08"/>
<rect x="28.1048" y="26.0974" width="4.30176" height="4.30176" fill="#8D7108"/>
<rect x="24.8068" y="27.8181" width="4.30176" height="4.30176" fill="#9C7D08"/>
<rect x="27.9614" y="28.3917" width="4.30176" height="4.30176" fill="#B28C00"/>
<rect x="21.0786" y="18.4976" width="4.30176" height="4.30176" fill="#B28C00"/>
<rect x="51.4777" y="49.6136" width="4.30176" height="4.30176" fill="#B28C00"/>
<rect x="47.176" y="39.5762" width="4.30176" height="4.30176" fill="#B28C00"/>
<rect x="33.5538" y="42.8742" width="4.30176" height="4.30176" fill="#B28C00"/>
<rect x="37.4254" y="35.4178" width="4.30176" height="4.30176" fill="#9C7D08"/>
<rect x="54.489" y="42.5874" width="4.30176" height="4.30176" fill="#B28C00"/>
<rect x="53.4853" y="35.848" width="4.30176" height="4.30176" fill="#B28C00"/>
<rect x="39.863" y="38.4291" width="4.30176" height="4.30176" fill="#B28C00"/>
<rect x="43.7345" y="31.6896" width="4.30176" height="4.30176" fill="#B28C00"/>
<rect x="40.4365" y="28.1049" width="4.30176" height="4.30176" fill="#B28C00"/>
<rect x="43.7345" y="33.5537" width="4.30176" height="4.30176" fill="#B28C00"/>
<rect x="30.1124" y="36.1348" width="4.30176" height="4.30176" fill="#B28C00"/>
<rect x="33.984" y="29.3953" width="4.30176" height="4.30176" fill="#9C7D08"/>
<rect x="33.5538" y="24.9502" width="4.30176" height="4.30176" fill="#9C7D08"/>
<rect x="27.1011" y="19.5013" width="4.30176" height="4.30176" fill="#9C7D08"/>
<rect x="30.6859" y="25.8105" width="4.30176" height="4.30176" fill="#B28C00"/>
<rect x="23.8031" y="15.9166" width="4.30176" height="4.30176" fill="#B28C00"/>
<rect x="27.2445" y="15.0562" width="4.30176" height="4.30176" fill="#B28C00"/>
<rect x="25.0935" y="12.3317" width="4.30176" height="4.30176" fill="#B28C00"/>
<rect x="29.1085" y="10.7544" width="4.30176" height="4.30176" fill="#B28C00"/>
<rect x="30.6859" y="7.02625" width="4.30176" height="4.30176" fill="#B28C00"/>
<rect x="32.55" y="4.15839" width="4.30176" height="4.30176" fill="#B28C00"/>
<rect x="34.7009" y="6.88281" width="4.30176" height="4.30176" fill="#B28C00"/>
<rect x="33.1235" y="9.6073" width="4.30176" height="4.30176" fill="#B28C00"/>
<rect x="27.6747" y="8.31671" width="4.30176" height="4.30176" fill="#B28C00"/>
<rect x="26.9577" y="5.01874" width="4.30176" height="4.30176" fill="#B28C00"/>
<rect x="23.6597" y="3.44141" width="4.30176" height="4.30176" fill="#B28C00"/>
<rect x="25.0935" width="4.30176" height="4.30176" fill="#B28C00"/>
<rect x="27.3879" y="2.58105" width="4.30176" height="4.30176" fill="#B28C00"/>
<rect x="29.1085" y="5.30554" width="4.30176" height="4.30176" fill="#B28C00"/>
<rect x="55.3493" y="48.1797" width="4.30176" height="4.30176" fill="#B28C00"/>
<rect x="62.6623" y="60.7983" width="4.30176" height="4.30176" fill="#B28C00"/>
<rect x="45.4554" y="63.9528" width="4.30176" height="4.30176" fill="#B28C00"/>
<rect x="41.1534" y="85.4617" width="4.30176" height="4.30176" fill="#CED3CE"/>
<rect x="41.1534" y="89.7634" width="4.30176" height="4.30176" fill="#CED3CE"/>
<rect x="45.1684" y="89.7634" width="4.30176" height="4.30176" fill="#CED3CE"/>
<rect x="44.0213" y="55.6361" width="4.30176" height="4.30176" fill="#B28C00"/>
<rect x="39.4328" y="68.9716" width="4.30176" height="4.30176" fill="#B28C00"/>
<rect x="60.2246" y="30.9727" width="4.30176" height="4.30176" fill="#A7CB5C"/>
<rect x="65.1001" y="25.3804" width="4.30176" height="4.30176" fill="#A7CB5C"/>
<rect x="59.3643" y="25.6672" width="4.30176" height="4.30176" fill="#A7CB5C"/>
<rect x="57.5003" y="31.9764" width="4.30176" height="4.30176" fill="#98BD4C"/>
<rect x="61.802" y="25.954" width="4.30176" height="4.30176" fill="#A7CB5C"/>
<rect x="60.368" y="30.9727" width="4.30176" height="4.30176" fill="#A7CB5C"/>
<rect x="61.5152" y="20.6484" width="4.30176" height="4.30176" fill="#A7CB5C"/>
<rect x="60.368" y="33.1236" width="4.30176" height="4.30176" fill="#A7CB5C"/>
<rect x="61.5152" y="22.7993" width="4.30176" height="4.30176" fill="#A7CB5C"/>
<rect x="63.9528" y="31.833" width="4.30176" height="4.30176" fill="#A7CB5C"/>
<rect x="60.2246" y="27.1011" width="4.30176" height="4.30176" fill="#BAF246"/>
<rect x="53.6287" y="25.3804" width="4.30176" height="4.30176" fill="#BAF246"/>
<rect x="48.3231" y="23.8031" width="4.30176" height="4.30176" fill="#BAF246"/>
<rect x="59.0775" y="16.9203" width="4.30176" height="4.30176" fill="#BAF246"/>
<rect x="54.7758" y="10.8978" width="4.30176" height="4.30176" fill="#BAF246"/>
<rect x="66.1038" y="40.2932" width="4.30176" height="4.30176" fill="#BAF246"/>
<rect x="65.1001" y="21.5088" width="4.30176" height="4.30176" fill="#A7CB5C"/>
<rect x="64.2396" y="31.4028" width="4.30176" height="4.30176" fill="#A7CB5C"/>
<rect x="64.0962" y="27.5312" width="4.30176" height="4.30176" fill="#A7CB5C"/>
<rect x="60.368" y="22.7993" width="4.30176" height="4.30176" fill="#A7CB5C"/>
<rect x="65.2434" y="17.207" width="4.30176" height="4.30176" fill="#A7CB5C"/>
<rect x="64.2396" y="27.1011" width="4.30176" height="4.30176" fill="#A7CB5C"/>
<rect x="64.0962" y="23.2295" width="4.30176" height="4.30176" fill="#A7CB5C"/>
<rect x="60.368" y="18.4976" width="4.30176" height="4.30176" fill="#A7CB5C"/>
<rect x="56.0663" y="12.4751" width="4.30176" height="4.30176" fill="#A7CB5C"/>
<rect x="54.2022" y="21.7956" width="4.30176" height="4.30176" fill="#A7CB5C"/>
<rect x="49.9005" y="15.7731" width="4.30176" height="4.30176" fill="#A7CB5C"/>
<rect x="55.6361" y="17.924" width="4.30176" height="4.30176" fill="#A7CB5C"/>
<rect x="51.3344" y="11.9015" width="4.30176" height="4.30176" fill="#A7CB5C"/>
<rect x="47.4628" y="17.7806" width="4.30176" height="4.30176" fill="#A7CB5C"/>
<rect x="43.161" y="11.7582" width="4.30176" height="4.30176" fill="#A7CB5C"/>
<rect x="65.2434" y="12.9053" width="4.30176" height="4.30176" fill="#A7CB5C"/>
<rect x="62.0888" y="13.6223" width="4.30176" height="4.30176" fill="#A7CB5C"/>
<rect x="56.0663" y="13.9091" width="4.30176" height="4.30176" fill="#A7CB5C"/>
<rect x="51.7645" y="7.88654" width="4.30176" height="4.30176" fill="#A7CB5C"/>
<rect x="62.0888" y="43.878" width="4.30176" height="4.30176" fill="#A7CB5C"/>
<rect x="64.0962" y="39.5762" width="4.30176" height="4.30176" fill="#A7CB5C"/>
<rect x="63.9528" y="35.7046" width="4.30176" height="4.30176" fill="#A7CB5C"/>
<rect x="60.7982" y="40.1498" width="4.30176" height="4.30176" fill="#A7CB5C"/>
<rect x="60.6548" y="36.2782" width="4.30176" height="4.30176" fill="#A7CB5C"/>
<rect x="60.5114" y="34.8443" width="4.30176" height="4.30176" fill="#738D3D"/>
<rect x="60.5114" y="36.9952" width="4.30176" height="4.30176" fill="#A7CB5C"/>
<rect x="64.0962" y="35.7046" width="4.30176" height="4.30176" fill="#A7CB5C"/>
<rect x="51.3344" y="46.0289" width="4.30176" height="4.30176" fill="#402E32"/>
<rect x="25.8107" y="42.8742" width="4.30176" height="4.30176" fill="#5D3D44"/>
<rect x="24.0898" y="37.5687" width="4.30176" height="4.30176" fill="#402E32"/>
<rect x="18.9278" y="33.267" width="4.30176" height="4.30176" fill="#402E32"/>
<rect x="13.192" y="28.6784" width="4.30176" height="4.30176" fill="#402E32"/>
<rect x="6.30932" y="18.7844" width="4.30176" height="4.30176" fill="#402E32"/>
<rect x="6.88286" y="20.9352" width="4.30176" height="4.30176" fill="#291D20"/>
<rect x="9.32042" y="22.5126" width="4.30176" height="4.30176" fill="#291D20"/>
<rect x="24.0898" y="30.3991" width="4.30176" height="4.30176" fill="#402E32"/>
<rect x="17.207" y="20.5051" width="4.30176" height="4.30176" fill="#402E32"/>
<rect x="18.3542" y="25.8105" width="4.30176" height="4.30176" fill="#402E32"/>
<rect x="11.4714" y="15.9166" width="4.30176" height="4.30176" fill="#402E32"/>
<rect x="26.0974" y="34.4141" width="4.30176" height="4.30176" fill="#402E32"/>
<rect x="20.3616" y="29.8256" width="4.30176" height="4.30176" fill="#402E32"/>
<rect x="13.4788" y="19.9315" width="4.30176" height="4.30176" fill="#402E32"/>
<rect x="27.3879" y="32.2632" width="4.30176" height="4.30176" fill="#402E32"/>
<rect x="20.7918" y="22.5126" width="4.30176" height="4.30176" fill="#402E32"/>
<rect x="20.3616" y="38.2856" width="4.30176" height="4.30176" fill="#291D20"/>
<rect x="15.1996" y="33.9839" width="4.30176" height="4.30176" fill="#402E32"/>
<rect x="9.46379" y="29.3953" width="4.30176" height="4.30176" fill="#402E32"/>
<rect x="2.58112" y="19.5013" width="4.30176" height="4.30176" fill="#402E32"/>
<rect x="4.44513" y="21.222" width="4.30176" height="4.30176" fill="#402E32"/>
<rect x="20.3616" y="31.1161" width="4.30176" height="4.30176" fill="#402E32"/>
<rect x="13.4788" y="21.222" width="4.30176" height="4.30176" fill="#402E32"/>
<rect x="14.626" y="26.5275" width="4.30176" height="4.30176" fill="#402E32"/>
<rect x="7.74319" y="16.6335" width="4.30176" height="4.30176" fill="#402E32"/>
<rect x="21.9391" y="34.5575" width="4.30176" height="4.30176" fill="#5E3D44"/>
<rect x="16.2033" y="29.9689" width="4.30176" height="4.30176" fill="#402E32"/>
<rect x="9.32042" y="20.0749" width="4.30176" height="4.30176" fill="#5E3D44"/>
<rect x="17.0636" y="29.6821" width="4.30176" height="4.30176" fill="#402E32"/>
<rect x="10.1809" y="19.7881" width="4.30176" height="4.30176" fill="#402E32"/>
<rect x="6.16592" y="24.0899" width="4.30176" height="4.30176" fill="#5E3D44"/>
<rect x="11.1846" y="25.0936" width="4.30176" height="4.30176" fill="#5E3D44"/>
<rect x="4.01496" y="15.4863" width="4.30176" height="4.30176" fill="#402E32"/>
<rect x="2.43773" y="14.9128" width="4.30176" height="4.30176" fill="#5E3D44"/>
<rect x="22.2258" y="26.8143" width="4.30176" height="4.30176" fill="#5E3D44"/>
<rect x="15.343" y="16.9203" width="4.30176" height="4.30176" fill="#402E32"/>
<rect x="16.4901" y="22.3692" width="4.30176" height="4.30176" fill="#402E32"/>
<rect x="9.60719" y="12.3317" width="4.30176" height="4.30176" fill="#5E3D44"/>
<rect x="84.0277" y="22.7993" width="4.30176" height="4.58855" fill="#E58073"/>
</svg>
