<svg width="188" height="78" viewBox="0 0 188 78" fill="none" xmlns="http://www.w3.org/2000/svg">
<rect x="2.5" y="2.5" width="183" height="73" rx="36.5" fill="white" stroke="black" stroke-width="5" stroke-linejoin="round"/>
<g filter="url(#filter0_d)">
<path d="M43.5 49.4C43.62 49.88 43.68 50.48 43.68 51.2C43.68 51.89 43.62 52.49 43.5 53H34.5C34.38 52.49 34.32 51.89 34.32 51.2C34.32 50.48 34.38 49.88 34.5 49.4H37.2C37.08 48.89 37.02 48.29 37.02 47.6C37.02 46.88 37.08 46.28 37.2 45.8C37.08 45.29 37.02 44.69 37.02 44C37.02 43.28 37.08 42.68 37.2 42.2C37.08 41.69 37.02 41.09 37.02 40.4C37.02 39.68 37.08 39.08 37.2 38.6C37.08 38.09 37.02 37.49 37.02 36.8C37.02 36.08 37.08 35.48 37.2 35C37.08 34.49 37.02 33.89 37.02 33.2C37.02 32.48 37.08 31.88 37.2 31.4H34.5C34.38 30.89 34.32 30.29 34.32 29.6C34.32 28.88 34.38 28.28 34.5 27.8H43.5C43.62 28.28 43.68 28.88 43.68 29.6C43.68 30.29 43.62 30.89 43.5 31.4H40.8C40.92 31.88 40.98 32.48 40.98 33.2C40.98 33.89 40.92 34.49 40.8 35C40.92 35.48 40.98 36.08 40.98 36.8C40.98 37.49 40.92 38.09 40.8 38.6C40.92 39.08 40.98 39.68 40.98 40.4C40.98 41.09 40.92 41.69 40.8 42.2C40.92 42.68 40.98 43.28 40.98 44C40.98 44.69 40.92 45.29 40.8 45.8C40.92 46.28 40.98 46.88 40.98 47.6C40.98 48.29 40.92 48.89 40.8 49.4H43.5ZM64.2176 31.4C64.3376 31.88 64.3976 32.48 64.3976 33.2C64.3976 33.89 64.3376 34.49 64.2176 35C64.3376 35.48 64.3976 36.08 64.3976 36.8C64.3976 37.49 64.3376 38.09 64.2176 38.6C64.3376 39.08 64.3976 39.68 64.3976 40.4C64.3976 41.09 64.3376 41.69 64.2176 42.2C64.3376 42.68 64.3976 43.28 64.3976 44C64.3976 44.69 64.3376 45.29 64.2176 45.8C64.3376 46.28 64.3976 46.88 64.3976 47.6C64.3976 48.29 64.3376 48.89 64.2176 49.4C64.3376 49.88 64.3976 50.48 64.3976 51.2C64.3976 51.89 64.3376 52.49 64.2176 53H60.6176C60.4976 52.49 60.4376 51.89 60.4376 51.2C60.4376 50.48 60.4976 49.88 60.6176 49.4H58.3676C58.2476 48.89 58.1876 48.29 58.1876 47.6C58.1876 46.88 58.2476 46.28 58.3676 45.8H57.0176C56.8976 45.29 56.8376 44.69 56.8376 44C56.8376 43.28 56.8976 42.68 57.0176 42.2H55.2176C55.0976 41.69 55.0376 41.09 55.0376 40.4C55.0376 39.68 55.0976 39.08 55.2176 38.6H53.4176C53.5376 39.08 53.5976 39.68 53.5976 40.4C53.5976 41.09 53.5376 41.69 53.4176 42.2C53.5376 42.68 53.5976 43.28 53.5976 44C53.5976 44.69 53.5376 45.29 53.4176 45.8C53.5376 46.28 53.5976 46.88 53.5976 47.6C53.5976 48.29 53.5376 48.89 53.4176 49.4C53.5376 49.88 53.5976 50.48 53.5976 51.2C53.5976 51.89 53.5376 52.49 53.4176 53H49.8176C49.6976 52.49 49.6376 51.89 49.6376 51.2C49.6376 50.48 49.6976 49.88 49.8176 49.4C49.6976 48.89 49.6376 48.29 49.6376 47.6C49.6376 46.88 49.6976 46.28 49.8176 45.8C49.6976 45.29 49.6376 44.69 49.6376 44C49.6376 43.28 49.6976 42.68 49.8176 42.2C49.6976 41.69 49.6376 41.09 49.6376 40.4C49.6376 39.68 49.6976 39.08 49.8176 38.6C49.6976 38.09 49.6376 37.49 49.6376 36.8C49.6376 36.08 49.6976 35.48 49.8176 35C49.6976 34.49 49.6376 33.89 49.6376 33.2C49.6376 32.48 49.6976 31.88 49.8176 31.4C49.6976 30.89 49.6376 30.29 49.6376 29.6C49.6376 28.88 49.6976 28.28 49.8176 27.8H54.3176C54.4376 28.28 54.4976 28.88 54.4976 29.6C54.4976 30.29 54.4376 30.89 54.3176 31.4H55.6676C55.7876 31.88 55.8476 32.48 55.8476 33.2C55.8476 33.89 55.7876 34.49 55.6676 35H57.0176C57.1376 35.48 57.1976 36.08 57.1976 36.8C57.1976 37.49 57.1376 38.09 57.0176 38.6H58.8176C58.9376 39.08 58.9976 39.68 58.9976 40.4C58.9976 41.09 58.9376 41.69 58.8176 42.2H60.6176C60.4976 41.69 60.4376 41.09 60.4376 40.4C60.4376 39.68 60.4976 39.08 60.6176 38.6C60.4976 38.09 60.4376 37.49 60.4376 36.8C60.4376 36.08 60.4976 35.48 60.6176 35C60.4976 34.49 60.4376 33.89 60.4376 33.2C60.4376 32.48 60.4976 31.88 60.6176 31.4C60.4976 30.89 60.4376 30.29 60.4376 29.6C60.4376 28.88 60.4976 28.28 60.6176 27.8H64.2176C64.3376 28.28 64.3976 28.88 64.3976 29.6C64.3976 30.29 64.3376 30.89 64.2176 31.4ZM79.5352 49.4C79.6552 49.88 79.7152 50.48 79.7152 51.2C79.7152 51.89 79.6552 52.49 79.5352 53H70.5352C70.4152 52.49 70.3552 51.89 70.3552 51.2C70.3552 50.48 70.4152 49.88 70.5352 49.4H73.2352C73.1152 48.89 73.0552 48.29 73.0552 47.6C73.0552 46.88 73.1152 46.28 73.2352 45.8C73.1152 45.29 73.0552 44.69 73.0552 44C73.0552 43.28 73.1152 42.68 73.2352 42.2C73.1152 41.69 73.0552 41.09 73.0552 40.4C73.0552 39.68 73.1152 39.08 73.2352 38.6C73.1152 38.09 73.0552 37.49 73.0552 36.8C73.0552 36.08 73.1152 35.48 73.2352 35C73.1152 34.49 73.0552 33.89 73.0552 33.2C73.0552 32.48 73.1152 31.88 73.2352 31.4H70.5352C70.4152 30.89 70.3552 30.29 70.3552 29.6C70.3552 28.88 70.4152 28.28 70.5352 27.8H79.5352C79.6552 28.28 79.7152 28.88 79.7152 29.6C79.7152 30.29 79.6552 30.89 79.5352 31.4H76.8352C76.9552 31.88 77.0152 32.48 77.0152 33.2C77.0152 33.89 76.9552 34.49 76.8352 35C76.9552 35.48 77.0152 36.08 77.0152 36.8C77.0152 37.49 76.9552 38.09 76.8352 38.6C76.9552 39.08 77.0152 39.68 77.0152 40.4C77.0152 41.09 76.9552 41.69 76.8352 42.2C76.9552 42.68 77.0152 43.28 77.0152 44C77.0152 44.69 76.9552 45.29 76.8352 45.8C76.9552 46.28 77.0152 46.88 77.0152 47.6C77.0152 48.29 76.9552 48.89 76.8352 49.4H79.5352ZM100.253 45.8C100.373 46.28 100.433 46.88 100.433 47.6C100.433 48.29 100.373 48.89 100.253 49.4H98.4527C98.5727 49.88 98.6327 50.48 98.6327 51.2C98.6327 51.89 98.5727 52.49 98.4527 53H89.4527C89.3327 52.49 89.2727 51.89 89.2727 51.2C89.2727 50.48 89.3327 49.88 89.4527 49.4H87.6527C87.5327 48.89 87.4727 48.29 87.4727 47.6C87.4727 46.88 87.5327 46.28 87.6527 45.8H85.8527C85.7327 45.29 85.6727 44.69 85.6727 44C85.6727 43.28 85.7327 42.68 85.8527 42.2C85.7327 41.69 85.6727 41.09 85.6727 40.4C85.6727 39.68 85.7327 39.08 85.8527 38.6C85.7327 38.09 85.6727 37.49 85.6727 36.8C85.6727 36.08 85.7327 35.48 85.8527 35H87.6527C87.5327 34.49 87.4727 33.89 87.4727 33.2C87.4727 32.48 87.5327 31.88 87.6527 31.4H89.4527C89.3327 30.89 89.2727 30.29 89.2727 29.6C89.2727 28.88 89.3327 28.28 89.4527 27.8H98.4527C98.5727 28.28 98.6327 28.88 98.6327 29.6C98.6327 30.29 98.5727 30.89 98.4527 31.4H100.253C100.373 31.88 100.433 32.48 100.433 33.2C100.433 33.89 100.373 34.49 100.253 35H96.6527C96.5327 34.49 96.4727 33.89 96.4727 33.2C96.4727 32.48 96.5327 31.88 96.6527 31.4H91.2527C91.3727 31.88 91.4327 32.48 91.4327 33.2C91.4327 33.89 91.3727 34.49 91.2527 35H89.4527C89.5727 35.48 89.6327 36.08 89.6327 36.8C89.6327 37.49 89.5727 38.09 89.4527 38.6C89.5727 39.08 89.6327 39.68 89.6327 40.4C89.6327 41.09 89.5727 41.69 89.4527 42.2C89.5727 42.68 89.6327 43.28 89.6327 44C89.6327 44.69 89.5727 45.29 89.4527 45.8H91.2527C91.3727 46.28 91.4327 46.88 91.4327 47.6C91.4327 48.29 91.3727 48.89 91.2527 49.4H96.6527C96.5327 48.89 96.4727 48.29 96.4727 47.6C96.4727 46.88 96.5327 46.28 96.6527 45.8H100.253ZM115.57 49.4C115.69 49.88 115.75 50.48 115.75 51.2C115.75 51.89 115.69 52.49 115.57 53H106.57C106.45 52.49 106.39 51.89 106.39 51.2C106.39 50.48 106.45 49.88 106.57 49.4H109.27C109.15 48.89 109.09 48.29 109.09 47.6C109.09 46.88 109.15 46.28 109.27 45.8C109.15 45.29 109.09 44.69 109.09 44C109.09 43.28 109.15 42.68 109.27 42.2C109.15 41.69 109.09 41.09 109.09 40.4C109.09 39.68 109.15 39.08 109.27 38.6C109.15 38.09 109.09 37.49 109.09 36.8C109.09 36.08 109.15 35.48 109.27 35C109.15 34.49 109.09 33.89 109.09 33.2C109.09 32.48 109.15 31.88 109.27 31.4H106.57C106.45 30.89 106.39 30.29 106.39 29.6C106.39 28.88 106.45 28.28 106.57 27.8H115.57C115.69 28.28 115.75 28.88 115.75 29.6C115.75 30.29 115.69 30.89 115.57 31.4H112.87C112.99 31.88 113.05 32.48 113.05 33.2C113.05 33.89 112.99 34.49 112.87 35C112.99 35.48 113.05 36.08 113.05 36.8C113.05 37.49 112.99 38.09 112.87 38.6C112.99 39.08 113.05 39.68 113.05 40.4C113.05 41.09 112.99 41.69 112.87 42.2C112.99 42.68 113.05 43.28 113.05 44C113.05 44.69 112.99 45.29 112.87 45.8C112.99 46.28 113.05 46.88 113.05 47.6C113.05 48.29 112.99 48.89 112.87 49.4H115.57ZM136.468 47.6C136.468 48.29 136.408 48.89 136.288 49.4C136.408 49.88 136.468 50.48 136.468 51.2C136.468 51.89 136.408 52.49 136.288 53H132.688C132.568 52.49 132.508 51.89 132.508 51.2C132.508 50.48 132.568 49.88 132.688 49.4C132.568 48.89 132.508 48.29 132.508 47.6C132.508 46.88 132.568 46.28 132.688 45.8H125.488C125.608 46.28 125.668 46.88 125.668 47.6C125.668 48.29 125.608 48.89 125.488 49.4C125.608 49.88 125.668 50.48 125.668 51.2C125.668 51.89 125.608 52.49 125.488 53H121.888C121.768 52.49 121.708 51.89 121.708 51.2C121.708 50.48 121.768 49.88 121.888 49.4C121.768 48.89 121.708 48.29 121.708 47.6C121.708 46.88 121.768 46.28 121.888 45.8H123.238C123.118 45.29 123.058 44.69 123.058 44C123.058 43.28 123.118 42.68 123.238 42.2C123.118 41.69 123.058 41.09 123.058 40.4C123.058 39.68 123.118 39.08 123.238 38.6H124.138C124.018 38.09 123.958 37.49 123.958 36.8C123.958 36.08 124.018 35.48 124.138 35H125.488C125.368 34.49 125.308 33.89 125.308 33.2C125.308 32.48 125.368 31.88 125.488 31.4H126.388C126.268 30.89 126.208 30.29 126.208 29.6C126.208 28.88 126.268 28.28 126.388 27.8H131.788C131.908 28.28 131.968 28.88 131.968 29.6C131.968 30.29 131.908 30.89 131.788 31.4H132.688C132.808 31.88 132.868 32.48 132.868 33.2C132.868 33.89 132.808 34.49 132.688 35H134.038C134.158 35.48 134.218 36.08 134.218 36.8C134.218 37.49 134.158 38.09 134.038 38.6H134.938C135.058 39.08 135.118 39.68 135.118 40.4C135.118 41.09 135.058 41.69 134.938 42.2C135.058 42.68 135.118 43.28 135.118 44C135.118 44.69 135.058 45.29 134.938 45.8H136.288C136.408 46.28 136.468 46.88 136.468 47.6ZM131.338 42.2C131.218 41.69 131.158 41.09 131.158 40.4C131.158 39.68 131.218 39.08 131.338 38.6H130.438C130.318 38.09 130.258 37.49 130.258 36.8C130.258 36.08 130.318 35.48 130.438 35H127.738C127.858 35.48 127.918 36.08 127.918 36.8C127.918 37.49 127.858 38.09 127.738 38.6H126.838C126.958 39.08 127.018 39.68 127.018 40.4C127.018 41.09 126.958 41.69 126.838 42.2H131.338ZM154.305 49.4C154.425 49.88 154.485 50.48 154.485 51.2C154.485 51.89 154.425 52.49 154.305 53H150.705C150.585 52.49 150.525 51.89 150.525 51.2C150.525 50.48 150.585 49.88 150.705 49.4H149.355C149.235 48.89 149.175 48.29 149.175 47.6C149.175 46.88 149.235 46.28 149.355 45.8H148.005C147.885 45.29 147.825 44.69 147.825 44C147.825 43.28 147.885 42.68 148.005 42.2H143.505C143.625 42.68 143.685 43.28 143.685 44C143.685 44.69 143.625 45.29 143.505 45.8C143.625 46.28 143.685 46.88 143.685 47.6C143.685 48.29 143.625 48.89 143.505 49.4C143.625 49.88 143.685 50.48 143.685 51.2C143.685 51.89 143.625 52.49 143.505 53H139.905C139.785 52.49 139.725 51.89 139.725 51.2C139.725 50.48 139.785 49.88 139.905 49.4C139.785 48.89 139.725 48.29 139.725 47.6C139.725 46.88 139.785 46.28 139.905 45.8C139.785 45.29 139.725 44.69 139.725 44C139.725 43.28 139.785 42.68 139.905 42.2C139.785 41.69 139.725 41.09 139.725 40.4C139.725 39.68 139.785 39.08 139.905 38.6C139.785 38.09 139.725 37.49 139.725 36.8C139.725 36.08 139.785 35.48 139.905 35C139.785 34.49 139.725 33.89 139.725 33.2C139.725 32.48 139.785 31.88 139.905 31.4C139.785 30.89 139.725 30.29 139.725 29.6C139.725 28.88 139.785 28.28 139.905 27.8H152.505C152.625 28.28 152.685 28.88 152.685 29.6C152.685 30.29 152.625 30.89 152.505 31.4H154.305C154.425 31.88 154.485 32.48 154.485 33.2C154.485 33.89 154.425 34.49 154.305 35H153.405C153.525 35.48 153.585 36.08 153.585 36.8C153.585 37.49 153.525 38.09 153.405 38.6H150.705C150.825 39.08 150.885 39.68 150.885 40.4C150.885 41.09 150.825 41.69 150.705 42.2H151.605C151.725 42.68 151.785 43.28 151.785 44C151.785 44.69 151.725 45.29 151.605 45.8H152.955C153.075 46.28 153.135 46.88 153.135 47.6C153.135 48.29 153.075 48.89 152.955 49.4H154.305ZM149.805 38.6C149.685 38.09 149.625 37.49 149.625 36.8C149.625 36.08 149.685 35.48 149.805 35C149.685 34.49 149.625 33.89 149.625 33.2C149.625 32.48 149.685 31.88 149.805 31.4H143.505C143.625 31.88 143.685 32.48 143.685 33.2C143.685 33.89 143.625 34.49 143.505 35C143.625 35.48 143.685 36.08 143.685 36.8C143.685 37.49 143.625 38.09 143.505 38.6H149.805Z" fill="black"/>
</g>
<defs>
<filter id="filter0_d" x="30.3199" y="27.8" width="128.165" height="33.2" filterUnits="userSpaceOnUse" color-interpolation-filters="sRGB">
<feFlood flood-opacity="0" result="BackgroundImageFix"/>
<feColorMatrix in="SourceAlpha" type="matrix" values="0 0 0 0 0 0 0 0 0 0 0 0 0 0 0 0 0 0 127 0"/>
<feOffset dy="4"/>
<feGaussianBlur stdDeviation="2"/>
<feColorMatrix type="matrix" values="0 0 0 0 0 0 0 0 0 0 0 0 0 0 0 0 0 0 0.25 0"/>
<feBlend mode="normal" in2="BackgroundImageFix" result="effect1_dropShadow"/>
<feBlend mode="normal" in="SourceGraphic" in2="effect1_dropShadow" result="shape"/>
</filter>
</defs>
</svg>
